<svg width="64" height="64" viewBox="0 0 64 64" fill="none" xmlns="http://www.w3.org/2000/svg">
<g clip-path="url(#clip0_8159_16845)">
<rect width="64" height="64" rx="32" fill="#BBEED6"/>
<path d="M49.8883 31.1107L42.4004 23.6227L48.5205 17.5025C49.6932 16.3299 51.5946 16.3299 52.7674 17.5025L56.0086 20.7438C57.1813 21.9164 57.1813 23.8178 56.0086 24.9906L49.8883 31.1107Z" fill="#119757"/>
<path d="M24.9336 13.0312H39.0666V20.2141H24.9336V13.0312Z" fill="#1BAF68"/>
<path d="M31.9994 74.5663C47.8482 74.5663 60.6962 61.7183 60.6962 45.8696C60.6962 30.0208 47.8482 17.1729 31.9994 17.1729C16.1507 17.1729 3.30273 30.0208 3.30273 45.8696C3.30273 61.7183 16.1507 74.5663 31.9994 74.5663Z" fill="#1BAF68"/>
<path d="M54.5587 45.8692C54.5587 58.3298 44.4584 68.4302 31.9991 68.4302C19.5398 68.4302 9.43945 58.3298 9.43945 45.8692C9.43945 33.4099 19.5398 23.3096 31.9991 23.3096C44.4584 23.3096 54.5587 33.4099 54.5587 45.8692Z" fill="#1BAF68"/>
<g style="mix-blend-mode:screen" opacity="0.8">
<path d="M54.5587 45.8682C54.5587 58.3288 44.4584 68.4292 31.9991 68.4292C19.5398 68.4292 9.43945 58.3288 9.43945 45.8682C9.43945 33.4089 19.5398 23.3086 31.9991 23.3086C44.4584 23.3086 54.5587 33.4089 54.5587 45.8682Z" fill="white"/>
</g>
<path d="M40.4121 7.13965H23.585C22.124 7.13965 20.9395 8.32404 20.9395 9.78521V11.677C20.9395 13.1381 22.1238 14.3226 23.585 14.3226H40.4121C41.8731 14.3226 43.0577 13.1382 43.0577 11.677V9.78521C43.0577 8.32417 41.8733 7.13965 40.4121 7.13965Z" fill="#119757"/>
<path d="M39.3127 48.2534C37.3488 48.2534 35.8451 47.5246 34.8018 46.067C33.7738 44.594 33.2598 42.515 33.2598 39.8299C33.2598 38.0347 33.4899 36.5234 33.9502 35.2959C34.4259 34.0531 35.1086 33.1172 35.9986 32.4881C36.9038 31.8437 38.0085 31.5215 39.3127 31.5215C41.292 31.5215 42.7957 32.2349 43.8237 33.6619C44.8517 35.0735 45.3657 37.1295 45.3657 39.8299C45.3657 41.6251 45.1278 43.1517 44.6522 44.4099C44.1919 45.6527 43.5168 46.604 42.6269 47.2637C41.737 47.9235 40.6322 48.2534 39.3127 48.2534ZM39.3127 45.3535C40.2026 45.3535 40.8624 44.9162 41.292 44.0416C41.7216 43.1517 41.9364 41.7478 41.9364 39.8299C41.9364 37.912 41.7216 36.5311 41.292 35.6872C40.8624 34.8433 40.2026 34.4214 39.3127 34.4214C38.4228 34.4214 37.763 34.8433 37.3334 35.6872C36.9038 36.5311 36.689 37.912 36.689 39.8299C36.689 41.7478 36.9038 43.1517 37.3334 44.0416C37.763 44.9162 38.4228 45.3535 39.3127 45.3535Z" fill="#FFA301"/>
<path d="M25.3521 48.2534C24.5389 48.2534 23.7104 48.1613 22.8665 47.9772C22.038 47.7778 21.3168 47.5016 20.7031 47.1487C20.3042 46.9339 20.028 46.6807 19.8746 46.3892C19.7365 46.0823 19.6828 45.7831 19.7134 45.4916C19.7595 45.2001 19.8822 44.9469 20.0817 44.7321C20.2812 44.5019 20.5343 44.3562 20.8412 44.2948C21.1634 44.2334 21.5163 44.2948 21.8999 44.4789C22.4983 44.7705 23.066 44.9776 23.603 45.1003C24.14 45.2231 24.677 45.2845 25.214 45.2845C25.8278 45.2845 26.3418 45.2077 26.756 45.0543C27.1703 44.8855 27.4848 44.6477 27.6997 44.3408C27.9145 44.034 28.0219 43.6504 28.0219 43.1901C28.0219 42.5457 27.7994 42.0624 27.3544 41.7401C26.9095 41.4179 26.2574 41.2568 25.3982 41.2568H24.0403C23.5339 41.2568 23.1427 41.1341 22.8665 40.8886C22.6057 40.6278 22.4752 40.2749 22.4752 39.8299C22.4752 39.3696 22.6057 39.0167 22.8665 38.7712C23.1427 38.5104 23.5339 38.38 24.0403 38.38H25.0529C25.5746 38.38 26.0119 38.3032 26.3648 38.1498C26.733 37.981 27.0169 37.7509 27.2163 37.4594C27.4311 37.1678 27.5385 36.8073 27.5385 36.3777C27.5385 35.7639 27.3237 35.2959 26.8941 34.9737C26.4799 34.6515 25.8738 34.4904 25.0759 34.4904C24.585 34.4904 24.1016 34.5518 23.626 34.6745C23.1504 34.7819 22.6364 34.9814 22.084 35.2729C21.7464 35.4417 21.4319 35.4954 21.1404 35.434C20.8489 35.3727 20.6034 35.2346 20.4039 35.0198C20.2198 34.805 20.097 34.5595 20.0357 34.2833C19.9896 33.9918 20.028 33.7002 20.1507 33.4087C20.2888 33.1172 20.5343 32.8794 20.8872 32.6952C21.547 32.3117 22.2604 32.0201 23.0276 31.8207C23.8101 31.6212 24.6003 31.5215 25.3982 31.5215C26.5642 31.5215 27.5616 31.6979 28.3901 32.0508C29.2186 32.4037 29.8554 32.9101 30.3003 33.5698C30.7453 34.2142 30.9678 34.9967 30.9678 35.9174C30.9678 36.5464 30.845 37.1218 30.5995 37.6435C30.3541 38.1651 30.0088 38.6101 29.5639 38.9783C29.1343 39.3312 28.6049 39.5844 27.9758 39.7378V39.4386C29.0652 39.6228 29.9168 40.0754 30.5305 40.7965C31.1442 41.5177 31.4511 42.4229 31.4511 43.5123C31.4511 44.4789 31.2056 45.3228 30.7146 46.044C30.2236 46.7497 29.5178 47.2944 28.5972 47.678C27.692 48.0616 26.6103 48.2534 25.3521 48.2534Z" fill="#FFA301"/>
<path d="M33.9143 61.1133C33.5471 61.1133 33.2643 61.009 33.0658 60.8006C32.8772 60.5823 32.7829 60.2796 32.7829 59.8925V54.8011C32.7829 54.4041 32.8772 54.1014 33.0658 53.8929C33.2643 53.6746 33.5471 53.5654 33.9143 53.5654C34.2716 53.5654 34.5446 53.6746 34.7331 53.8929C34.9316 54.1014 35.0309 54.4041 35.0309 54.8011V59.8925C35.0309 60.2796 34.9366 60.5823 34.748 60.8006C34.5594 61.009 34.2816 61.1133 33.9143 61.1133ZM33.9143 52.3447C33.4975 52.3447 33.1749 52.2504 32.9467 52.0618C32.7283 51.8633 32.6191 51.5854 32.6191 51.2281C32.6191 50.8609 32.7283 50.583 32.9467 50.3944C33.1749 50.1959 33.4975 50.0967 33.9143 50.0967C34.3312 50.0967 34.6488 50.1959 34.8671 50.3944C35.0855 50.583 35.1946 50.8609 35.1946 51.2281C35.1946 51.5854 35.0855 51.8633 34.8671 52.0618C34.6488 52.2504 34.3312 52.3447 33.9143 52.3447Z" fill="#FFA301"/>
<path d="M37.749 61.1281C37.3817 61.1281 37.0989 61.0289 36.9004 60.8304C36.7118 60.6319 36.6175 60.349 36.6175 59.9818V54.6968C36.6175 54.3296 36.7118 54.0517 36.9004 53.8632C37.0989 53.6647 37.3718 53.5654 37.7192 53.5654C38.0765 53.5654 38.3494 53.6647 38.538 53.8632C38.7266 54.0517 38.8208 54.3296 38.8208 54.6968V55.5454L38.6571 55.0541C38.8854 54.5678 39.2228 54.1956 39.6694 53.9376C40.126 53.6696 40.6421 53.5356 41.2177 53.5356C41.8033 53.5356 42.2846 53.6498 42.6618 53.878C43.0389 54.0964 43.3218 54.4338 43.5103 54.8904C43.6989 55.337 43.7932 55.9077 43.7932 56.6024V59.9818C43.7932 60.349 43.6939 60.6319 43.4955 60.8304C43.3069 61.0289 43.029 61.1281 42.6618 61.1281C42.3045 61.1281 42.0266 61.0289 41.8281 60.8304C41.6395 60.6319 41.5452 60.349 41.5452 59.9818V56.7066C41.5452 56.2005 41.4509 55.8382 41.2624 55.6199C41.0837 55.3916 40.8058 55.2775 40.4287 55.2775C39.9523 55.2775 39.5702 55.4263 39.2824 55.7241C39.0045 56.0218 38.8655 56.4188 38.8655 56.915V59.9818C38.8655 60.746 38.4933 61.1281 37.749 61.1281Z" fill="#FFA301"/>
<path d="M20.8619 61.1286C20.4947 61.1286 20.2118 61.0294 20.0133 60.8309C19.8248 60.6324 19.7305 60.3495 19.7305 59.9823V54.6973C19.7305 54.3301 19.8248 54.0522 20.0133 53.8637C20.2118 53.6652 20.4848 53.5659 20.8321 53.5659C21.1894 53.5659 21.4624 53.6652 21.6509 53.8637C21.8395 54.0522 21.9338 54.3301 21.9338 54.6973V55.6501L21.77 55.0546C21.9685 54.5981 22.2762 54.2309 22.693 53.953C23.1099 53.6751 23.6012 53.5361 24.1669 53.5361C24.7326 53.5361 25.204 53.6701 25.5812 53.9381C25.9583 54.2061 26.2263 54.6179 26.3851 55.1737H26.1767C26.395 54.6676 26.7275 54.2706 27.1741 53.9828C27.6306 53.685 28.1517 53.5361 28.7373 53.5361C29.303 53.5361 29.7645 53.6503 30.1218 53.8785C30.489 54.0969 30.7619 54.4343 30.9406 54.8909C31.1192 55.3375 31.2086 55.9082 31.2086 56.6029V59.9823C31.2086 60.3495 31.1093 60.6324 30.9108 60.8309C30.7222 61.0294 30.4493 61.1286 30.092 61.1286C29.7248 61.1286 29.4419 61.0294 29.2434 60.8309C29.0549 60.6324 28.9606 60.3495 28.9606 59.9823V56.6773C28.9606 56.191 28.8812 55.8387 28.7224 55.6204C28.5735 55.3921 28.3155 55.2779 27.9482 55.2779C27.5215 55.2779 27.189 55.4268 26.9508 55.7246C26.7126 56.0223 26.5935 56.4441 26.5935 56.99V59.9823C26.5935 60.3495 26.4943 60.6324 26.2958 60.8309C26.1072 61.0294 25.8342 61.1286 25.477 61.1286C25.1197 61.1286 24.8418 61.0294 24.6433 60.8309C24.4448 60.6324 24.3455 60.3495 24.3455 59.9823V56.6773C24.3455 56.191 24.2661 55.8387 24.1073 55.6204C23.9585 55.3921 23.7004 55.2779 23.3332 55.2779C22.9064 55.2779 22.5739 55.4268 22.3357 55.7246C22.0975 56.0223 21.9784 56.4441 21.9784 56.99V59.9823C21.9784 60.7465 21.6063 61.1286 20.8619 61.1286Z" fill="#FFA301"/>
</g>
<defs>
<clipPath id="clip0_8159_16845">
<rect width="64" height="64" rx="32" fill="white"/>
</clipPath>
</defs>
</svg>
