<svg width="64" height="64" viewBox="0 0 64 64" fill="none" xmlns="http://www.w3.org/2000/svg">
<g clip-path="url(#clip0_8159_30585)">
<rect width="64" height="64" rx="32" fill="#BBEED6"/>
<path d="M49.8883 31.1107L42.4004 23.6227L48.5205 17.5025C49.6932 16.3299 51.5946 16.3299 52.7674 17.5025L56.0086 20.7438C57.1813 21.9164 57.1813 23.8178 56.0086 24.9906L49.8883 31.1107Z" fill="#119757"/>
<path d="M24.9336 13.0312H39.0666V20.2141H24.9336V13.0312Z" fill="#1BAF68"/>
<path d="M31.9994 74.5663C47.8482 74.5663 60.6962 61.7183 60.6962 45.8696C60.6962 30.0208 47.8482 17.1729 31.9994 17.1729C16.1507 17.1729 3.30273 30.0208 3.30273 45.8696C3.30273 61.7183 16.1507 74.5663 31.9994 74.5663Z" fill="#1BAF68"/>
<path d="M54.5587 45.8692C54.5587 58.3298 44.4584 68.4302 31.9991 68.4302C19.5398 68.4302 9.43945 58.3298 9.43945 45.8692C9.43945 33.4099 19.5398 23.3096 31.9991 23.3096C44.4584 23.3096 54.5587 33.4099 54.5587 45.8692Z" fill="#1BAF68"/>
<g style="mix-blend-mode:screen" opacity="0.8">
<path d="M54.5587 45.8682C54.5587 58.3288 44.4584 68.4292 31.9991 68.4292C19.5398 68.4292 9.43945 58.3288 9.43945 45.8682C9.43945 33.4089 19.5398 23.3086 31.9991 23.3086C44.4584 23.3086 54.5587 33.4089 54.5587 45.8682Z" fill="white"/>
</g>
<path d="M40.4121 7.13965H23.585C22.124 7.13965 20.9395 8.32404 20.9395 9.78521V11.677C20.9395 13.1381 22.1238 14.3226 23.585 14.3226H40.4121C41.8731 14.3226 43.0577 13.1382 43.0577 11.677V9.78521C43.0577 8.32417 41.8733 7.13965 40.4121 7.13965V7.13965Z" fill="#119757"/>
<path d="M39.3127 48.2534C37.3488 48.2534 35.8451 47.5246 34.8018 46.067C33.7738 44.594 33.2598 42.515 33.2598 39.8299C33.2598 38.0347 33.4899 36.5234 33.9502 35.2959C34.4259 34.0531 35.1086 33.1172 35.9986 32.4881C36.9038 31.8437 38.0085 31.5215 39.3127 31.5215C41.292 31.5215 42.7957 32.2349 43.8237 33.6619C44.8517 35.0735 45.3657 37.1295 45.3657 39.8299C45.3657 41.6251 45.1278 43.1517 44.6522 44.4099C44.1919 45.6527 43.5168 46.604 42.6269 47.2637C41.737 47.9235 40.6322 48.2534 39.3127 48.2534ZM39.3127 45.3535C40.2026 45.3535 40.8624 44.9162 41.292 44.0416C41.7216 43.1517 41.9364 41.7478 41.9364 39.8299C41.9364 37.912 41.7216 36.5311 41.292 35.6872C40.8624 34.8433 40.2026 34.4214 39.3127 34.4214C38.4228 34.4214 37.763 34.8433 37.3334 35.6872C36.9038 36.5311 36.689 37.912 36.689 39.8299C36.689 41.7478 36.9038 43.1517 37.3334 44.0416C37.763 44.9162 38.4228 45.3535 39.3127 45.3535Z" fill="#FFA301"/>
<path d="M26.3652 48.2534C24.9843 48.2534 23.8106 47.9312 22.8439 47.2868C21.8773 46.6423 21.1408 45.7141 20.6345 44.5019C20.1282 43.2898 19.875 41.8245 19.875 40.1061C19.875 38.7405 20.0361 37.5284 20.3583 36.4697C20.6959 35.411 21.1715 34.5134 21.7852 33.777C22.399 33.0405 23.1508 32.4804 24.0407 32.0969C24.946 31.7133 25.9586 31.5215 27.0787 31.5215C27.7385 31.5215 28.4059 31.6135 29.081 31.7977C29.7561 31.9818 30.3852 32.258 30.9682 32.6262C31.2751 32.7796 31.4822 33.0021 31.5896 33.2936C31.7124 33.5698 31.7507 33.8537 31.7047 34.1452C31.6587 34.4367 31.5436 34.6976 31.3595 34.9277C31.1754 35.1425 30.9375 35.2883 30.646 35.365C30.3698 35.4264 30.0476 35.3727 29.6794 35.2039C29.2037 34.943 28.7434 34.7589 28.2985 34.6515C27.8689 34.5441 27.4469 34.4904 27.0327 34.4904C26.2195 34.4904 25.529 34.6745 24.9613 35.0428C24.3936 35.411 23.964 35.9634 23.6725 36.6999C23.3963 37.4363 23.2582 38.3493 23.2582 39.4386V40.9346H22.936C23.0741 40.1981 23.3273 39.5767 23.6955 39.0704C24.0791 38.5487 24.5624 38.1498 25.1454 37.8736C25.7285 37.5974 26.3729 37.4594 27.0787 37.4594C27.9993 37.4594 28.8125 37.6895 29.5183 38.1498C30.2394 38.5948 30.8071 39.2162 31.2214 40.014C31.6357 40.7965 31.8428 41.6941 31.8428 42.7068C31.8428 43.7808 31.6127 44.7398 31.1524 45.5837C30.6921 46.4122 30.0476 47.0643 29.2191 47.5399C28.4059 48.0156 27.4546 48.2534 26.3652 48.2534ZM26.1811 45.4686C26.6568 45.4686 27.071 45.3612 27.4239 45.1464C27.7922 44.9316 28.0683 44.6247 28.2525 44.2258C28.4519 43.8268 28.5517 43.3665 28.5517 42.8449C28.5517 42.3232 28.4519 41.8706 28.2525 41.487C28.0683 41.0881 27.7922 40.7812 27.4239 40.5664C27.071 40.3362 26.6568 40.2212 26.1811 40.2212C25.7055 40.2212 25.2835 40.3362 24.9153 40.5664C24.5624 40.7812 24.2862 41.0881 24.0867 41.487C23.8873 41.8706 23.7876 42.3232 23.7876 42.8449C23.7876 43.3665 23.8873 43.8268 24.0867 44.2258C24.2862 44.6247 24.5624 44.9316 24.9153 45.1464C25.2835 45.3612 25.7055 45.4686 26.1811 45.4686Z" fill="#FFA301"/>
<path d="M33.9143 61.1133C33.5471 61.1133 33.2643 61.009 33.0658 60.8006C32.8772 60.5823 32.7829 60.2796 32.7829 59.8925V54.8011C32.7829 54.4041 32.8772 54.1014 33.0658 53.8929C33.2643 53.6746 33.5471 53.5654 33.9143 53.5654C34.2716 53.5654 34.5446 53.6746 34.7331 53.8929C34.9316 54.1014 35.0309 54.4041 35.0309 54.8011V59.8925C35.0309 60.2796 34.9366 60.5823 34.748 60.8006C34.5594 61.009 34.2816 61.1133 33.9143 61.1133ZM33.9143 52.3447C33.4975 52.3447 33.1749 52.2504 32.9467 52.0618C32.7283 51.8633 32.6191 51.5854 32.6191 51.2281C32.6191 50.8609 32.7283 50.583 32.9467 50.3944C33.1749 50.1959 33.4975 50.0967 33.9143 50.0967C34.3312 50.0967 34.6488 50.1959 34.8671 50.3944C35.0855 50.583 35.1946 50.8609 35.1946 51.2281C35.1946 51.5854 35.0855 51.8633 34.8671 52.0618C34.6488 52.2504 34.3312 52.3447 33.9143 52.3447Z" fill="#FFA301"/>
<path d="M37.749 61.1281C37.3817 61.1281 37.0989 61.0289 36.9004 60.8304C36.7118 60.6319 36.6175 60.349 36.6175 59.9818V54.6968C36.6175 54.3296 36.7118 54.0517 36.9004 53.8632C37.0989 53.6647 37.3718 53.5654 37.7192 53.5654C38.0765 53.5654 38.3494 53.6647 38.538 53.8632C38.7266 54.0517 38.8208 54.3296 38.8208 54.6968V55.5454L38.6571 55.0541C38.8854 54.5678 39.2228 54.1956 39.6694 53.9376C40.126 53.6696 40.6421 53.5356 41.2177 53.5356C41.8033 53.5356 42.2846 53.6498 42.6618 53.878C43.0389 54.0964 43.3218 54.4338 43.5103 54.8904C43.6989 55.337 43.7932 55.9077 43.7932 56.6024V59.9818C43.7932 60.349 43.6939 60.6319 43.4955 60.8304C43.3069 61.0289 43.029 61.1281 42.6618 61.1281C42.3045 61.1281 42.0266 61.0289 41.8281 60.8304C41.6395 60.6319 41.5452 60.349 41.5452 59.9818V56.7066C41.5452 56.2005 41.4509 55.8382 41.2624 55.6199C41.0837 55.3916 40.8058 55.2775 40.4287 55.2775C39.9523 55.2775 39.5702 55.4263 39.2824 55.7241C39.0045 56.0218 38.8655 56.4188 38.8655 56.915V59.9818C38.8655 60.746 38.4933 61.1281 37.749 61.1281Z" fill="#FFA301"/>
<path d="M20.8639 61.1286C20.4966 61.1286 20.2138 61.0294 20.0153 60.8309C19.8267 60.6324 19.7324 60.3495 19.7324 59.9823V54.6973C19.7324 54.3301 19.8267 54.0522 20.0153 53.8637C20.2138 53.6652 20.4867 53.5659 20.8341 53.5659C21.1914 53.5659 21.4643 53.6652 21.6529 53.8637C21.8415 54.0522 21.9357 54.3301 21.9357 54.6973V55.6501L21.772 55.0546C21.9705 54.5981 22.2781 54.2309 22.695 53.953C23.1118 53.6751 23.6031 53.5361 24.1688 53.5361C24.7345 53.5361 25.206 53.6701 25.5831 53.9381C25.9603 54.2061 26.2282 54.6179 26.387 55.1737H26.1786C26.397 54.6676 26.7294 54.2706 27.1761 53.9828C27.6326 53.685 28.1537 53.5361 28.7392 53.5361C29.3049 53.5361 29.7664 53.6503 30.1237 53.8785C30.491 54.0969 30.7639 54.4343 30.9425 54.8909C31.1212 55.3375 31.2105 55.9082 31.2105 56.6029V59.9823C31.2105 60.3495 31.1113 60.6324 30.9128 60.8309C30.7242 61.0294 30.4513 61.1286 30.094 61.1286C29.7267 61.1286 29.4439 61.0294 29.2454 60.8309C29.0568 60.6324 28.9625 60.3495 28.9625 59.9823V56.6773C28.9625 56.191 28.8831 55.8387 28.7243 55.6204C28.5755 55.3921 28.3174 55.2779 27.9502 55.2779C27.5234 55.2779 27.1909 55.4268 26.9527 55.7246C26.7146 56.0223 26.5955 56.4441 26.5955 56.99V59.9823C26.5955 60.3495 26.4962 60.6324 26.2977 60.8309C26.1091 61.0294 25.8362 61.1286 25.4789 61.1286C25.1216 61.1286 24.8437 61.0294 24.6452 60.8309C24.4467 60.6324 24.3475 60.3495 24.3475 59.9823V56.6773C24.3475 56.191 24.2681 55.8387 24.1093 55.6204C23.9604 55.3921 23.7024 55.2779 23.3351 55.2779C22.9084 55.2779 22.5759 55.4268 22.3377 55.7246C22.0995 56.0223 21.9804 56.4441 21.9804 56.99V59.9823C21.9804 60.7465 21.6082 61.1286 20.8639 61.1286Z" fill="#FFA301"/>
</g>
<defs>
<clipPath id="clip0_8159_30585">
<rect width="64" height="64" rx="32" fill="white"/>
</clipPath>
</defs>
</svg>
