<svg width="235" height="231" viewBox="0 0 235 231" fill="none" xmlns="http://www.w3.org/2000/svg">
<rect width="235" height="231" rx="32" fill="#FFF6F3"/>
<g style="mix-blend-mode:multiply">
<path d="M27.4682 160.862C26.8337 146.62 55.744 135.605 129.636 132.526C164.319 130.212 188.553 140.99 178.376 150.921C136.626 202.711 28.1028 175.103 27.4682 160.862Z" fill="#DDCBD6"/>
</g>
<mask id="mask0_8167_33536" style="mask-type:alpha" maskUnits="userSpaceOnUse" x="40" y="46" width="101" height="93">
<path d="M90.2264 46.9424C130.373 46.9428 140.41 66.4168 140.41 93.9386C140.41 115.87 112.809 146.088 90.2264 136.854C72.662 146.871 40.0426 119.003 40.0426 93.9386C40.0426 66.4168 50.0793 46.942 90.2264 46.9424Z" fill="#E63F3F"/>
</mask>
<g mask="url(#mask0_8167_33536)">
<path d="M90.2264 46.9424C130.373 46.9428 140.41 66.4168 140.41 93.9386C140.41 115.87 112.809 146.088 90.2264 136.854C72.662 146.871 40.0426 119.003 40.0426 93.9386C40.0426 66.4168 50.0793 46.942 90.2264 46.9424Z" fill="#DC3131"/>
<g style="mix-blend-mode:multiply">
<path d="M121.375 89.0186C128.817 85.3888 126.456 80.6699 139.706 74.6807C207.584 103.356 142.428 154.174 135.168 152.904C127.908 151.633 95.7841 146.915 97.9621 115.879C100.14 84.8443 113.933 92.6484 121.375 89.0186Z" fill="#E53F3F"/>
</g>
</g>
<g style="mix-blend-mode:multiply" opacity="0.5">
<path d="M88.5545 72.034C98.5912 71.1976 105.282 66.1791 106.119 62.8336C106.955 59.4882 83.5367 52.7964 69.3174 65.3428C67.915 66.5802 78.5177 72.8704 88.5545 72.034Z" fill="#D83B3A"/>
</g>
<path d="M65.7238 67.0719C78.0822 59.4079 86.2209 67.4897 88.3019 64.9761C83.9693 63.4301 79.4849 52.5675 68.0472 51.3049C46.479 48.924 39.8657 61.0559 37.5789 64.9761C41.967 63.8777 50.0845 76.7706 65.7238 67.0719Z" fill="#19C472"/>
<path d="M93.5742 43.5967C92.9051 43.5967 91.5669 43.7944 91.5669 44.5851C91.5669 45.3759 89.5595 58.7532 88.5558 65.343" stroke="#743910" stroke-width="3.34559" stroke-linecap="round"/>
<mask id="mask1_8167_33536" style="mask-type:alpha" maskUnits="userSpaceOnUse" x="102" y="63" width="101" height="93">
<path d="M152.817 63.874C112.67 63.8744 102.633 83.3484 102.633 110.87C102.633 132.802 130.234 163.02 152.817 153.785C170.381 163.803 203 135.935 203 110.87C203 83.3484 192.964 63.8736 152.817 63.874Z" fill="#E63F3F"/>
</mask>
<g mask="url(#mask1_8167_33536)">
<path d="M152.817 63.874C112.67 63.8744 102.633 83.3484 102.633 110.87C102.633 132.802 130.234 163.02 152.817 153.785C170.381 163.803 203 135.935 203 110.87C203 83.3484 192.964 63.8736 152.817 63.874Z" fill="#E93D3D"/>
</g>
<g style="mix-blend-mode:multiply" opacity="0.5">
<path d="M154.488 88.9656C144.452 88.1292 137.761 83.1107 136.924 79.7653C136.088 76.4198 159.506 69.7281 173.726 82.2745C175.128 83.5118 164.525 89.802 154.488 88.9656Z" fill="#E53F3F"/>
</g>
<path d="M165.206 70.1277C158.494 72.2299 156.211 79.2538 155.908 82.503C160.358 81.3385 162.351 87.3012 171.444 84.0572C178.719 81.462 179.898 71.7588 179.578 67.2317C176.572 70.6119 173.596 67.5 165.206 70.1277Z" fill="#19C472"/>
<path d="M149.469 60.5283C150.138 60.5283 151.476 60.726 151.476 61.5168C151.476 62.3076 153.483 75.6848 154.487 82.2746" stroke="#743910" stroke-width="3.34559" stroke-linecap="round"/>
<path d="M42.6246 135.429C40.6381 130.926 37.0082 124.594 41.565 118.477C56.5446 95.6362 102.436 92.6039 108.311 98.0881C113.012 102.475 111.42 108.388 110.036 110.796C117.364 108.235 132.842 106.611 136.126 120.596C140.232 138.078 124.869 160.195 97.7191 164.698C70.569 169.201 53.2195 158.076 49.7761 151.322C46.3327 144.568 44.6112 139.932 42.6246 135.429Z" fill="#F14E4E"/>
<path d="M55.9956 130.407C43.687 130.407 39.3715 127.246 40.126 122.035C40.8806 116.824 56.7903 95.2485 100.299 95.248C113.235 95.2479 111.503 105.531 106.439 108.37C101.374 111.209 96.1563 114.279 97.0771 114.509C97.998 114.739 110.276 109.828 115.11 108.984C119.944 108.14 136.596 108.907 135.291 122.035C133.987 135.163 100.377 149.04 84.7995 149.884C69.2223 150.728 56.4955 146.215 54.996 139.967C53.4965 133.719 68.3042 130.407 55.9956 130.407Z" fill="#FEEFB6"/>
<path d="M75.5974 127.152C71.5568 126.717 70.6238 128.084 70.4375 127.587C72.8623 125.535 70.8103 121.557 74.2916 116.894C77.773 112.231 84.0519 112.604 89.8957 114.283C95.7394 115.962 99.4695 123.546 93.3149 126.654C87.1603 129.763 79.6381 127.587 75.5974 127.152Z" fill="#E6D18C"/>
<path d="M78.7361 121.416C81.931 121.734 84.9672 118.554 85.0686 118.004C85.4515 117.417 83.1023 115.59 80.0663 116.472C77.0303 117.354 75.5412 121.098 78.7361 121.416Z" fill="#B46753"/>
<path d="M81.1924 123.686C82.0019 120.809 86.2958 119.147 86.7149 119.436C87.1628 119.667 88.2764 121.546 86.4259 124.828C84.5754 128.11 80.3829 126.563 81.1924 123.686Z" fill="#B46753"/>
<path d="M114.335 107.27C107.435 110.766 98.0056 114.308 97.6836 114.032C97.6836 113.664 99.2936 113.02 105.366 109.892C111.438 106.764 121.695 97.8859 122.845 96.6899C123.995 95.494 126.341 95.9999 127.031 97.8859C127.721 99.7719 121.235 103.774 114.335 107.27Z" fill="#743910"/>
</svg>
