<svg width="25" height="25" viewBox="0 0 25 25" fill="none" xmlns="http://www.w3.org/2000/svg">
<path d="M22.1435 11.9481L15.1981 5.0024C14.9998 4.80414 14.7356 4.69531 14.4538 4.69531C14.1718 4.69531 13.9077 4.8043 13.7094 5.0024L13.0788 5.63316C12.8807 5.83111 12.7716 6.09552 12.7716 6.37743C12.7716 6.65919 12.8807 6.93251 13.0788 7.13046L17.1307 11.1913H4.25775C3.67735 11.1913 3.21875 11.6457 3.21875 12.2262V13.118C3.21875 13.6985 3.67735 14.1987 4.25775 14.1987H17.1766L13.079 18.2822C12.8809 18.4805 12.7717 18.7377 12.7717 19.0196C12.7717 19.3012 12.8809 19.5622 13.079 19.7603L13.7096 20.389C13.9078 20.5873 14.1719 20.6953 14.454 20.6953C14.7357 20.6953 15 20.5859 15.1983 20.3876L22.1437 13.4421C22.3424 13.2432 22.4517 12.9777 22.4509 12.6955C22.4515 12.4123 22.3424 12.1466 22.1435 11.9481Z" fill="#273430"/>
</svg>
