<svg width="65" height="65" viewBox="0 0 65 65" fill="none" xmlns="http://www.w3.org/2000/svg">
<g clip-path="url(#clip0_290_11884)">
<path d="M52.3761 31.033C54.4767 29.4656 55.8284 27.0324 55.8284 24.2975C55.8284 19.6463 51.9272 15.9704 47.389 15.7546C49.2877 5.80043 32.7764 4.3972 32.7764 14.5015C32.7764 4.39818 16.2655 5.80001 18.1637 15.7546C13.4529 16.0352 9.72439 19.7524 9.72439 24.2975C9.72439 27.0324 11.076 29.4656 13.1767 31.033C9.37281 32.9344 6.77734 36.7245 6.77734 41.0914C6.77734 47.2039 11.859 52.1854 18.2273 52.4393C20.1654 60.5655 32.7764 59.1622 32.7764 50.8874C32.7764 59.1622 45.3874 60.5655 47.3255 52.4393C53.6938 52.1854 58.7754 47.2039 58.7754 41.0914C58.7754 36.7245 56.1799 32.9344 52.3761 31.033Z" fill="#1BAF68"/>
<g style="mix-blend-mode:multiply">
<path d="M46.413 37.2079C45.8838 36.8845 45.193 37.0513 44.8697 37.5802C44.5463 38.1092 44.7131 38.8002 45.242 39.1235C46.6557 39.9877 46.8479 41.9443 45.6291 43.0631C44.1049 42.0741 42.225 42.0118 40.5905 42.7573C40.0264 43.0145 39.7778 43.6805 40.0351 44.2446C40.2924 44.8086 40.9579 45.0574 41.5224 44.8C42.6379 44.291 43.8901 44.4051 44.8244 45.2712C45.5769 45.9689 45.8751 46.9088 45.8781 46.9182C46.0275 47.3993 46.4711 47.7081 46.9497 47.7079C47.7035 47.7079 48.2472 46.9761 48.0221 46.2521C47.9679 46.0778 47.7369 45.3982 47.2239 44.6456C49.4466 42.5108 49.0843 38.8409 46.413 37.2079Z" fill="#1BAF68"/>
</g>
<g style="mix-blend-mode:multiply">
<path d="M24.9626 42.7574C23.3291 42.0123 21.4496 42.0733 19.924 43.0632C18.7036 41.9427 18.8992 39.9867 20.3112 39.1236C20.8402 38.8003 21.0069 38.1093 20.6835 37.5803C20.3601 37.0513 19.6691 36.8844 19.1402 37.208C16.4681 38.8413 16.1069 42.511 18.3291 44.6457C17.8161 45.3983 17.5851 46.0779 17.5309 46.2522C17.347 46.8442 17.6779 47.4734 18.2699 47.6572C18.8594 47.8403 19.4903 47.513 19.6749 46.9183C19.6779 46.9089 19.9761 45.969 20.7286 45.2714C21.6632 44.4051 22.9152 44.2914 24.0306 44.8001C24.5947 45.0574 25.2605 44.8088 25.5179 44.2447C25.7754 43.6805 25.5267 43.0146 24.9626 42.7574Z" fill="#1BAF68"/>
</g>
<g style="mix-blend-mode:multiply">
<path d="M40.9612 15.371C41.2517 15.4075 41.5337 15.5043 41.7933 15.653C41.2966 16.1442 40.8784 16.7069 40.5487 17.3257C40.2189 17.9431 40.5318 18.7093 41.1998 18.917L41.2054 18.9198C41.726 19.0811 42.2817 18.8412 42.5343 18.3571C43.382 16.7241 44.8629 15.9292 46.6584 15.7541C46.7131 15.4538 46.751 15.1605 46.7748 14.8757C46.8352 14.1291 46.156 13.5271 45.4249 13.6899C44.8889 13.8092 44.315 13.9972 43.727 14.2877C43.0296 13.6661 42.1708 13.2605 41.2419 13.1427C40.6273 13.0655 40.066 13.5005 39.9874 14.1165C39.9102 14.7311 40.3452 15.2924 40.9612 15.371Z" fill="#1BAF68"/>
</g>
<g style="mix-blend-mode:multiply">
<path d="M18.8976 15.7541C20.6966 15.9296 22.1754 16.7268 23.0217 18.3571C23.2742 18.8412 23.8299 19.0811 24.3505 18.9198L24.3561 18.917C25.0241 18.7093 25.337 17.9431 25.0072 17.3257C24.6775 16.7069 24.2593 16.1442 23.7626 15.653C24.0222 15.5043 24.3042 15.4075 24.5947 15.371C25.2107 15.2924 25.6457 14.7311 25.5685 14.1165C25.49 13.5005 24.9287 13.0655 24.314 13.1427C23.3851 13.2605 22.5263 13.6661 21.8289 14.2877C21.241 13.9972 20.667 13.8092 20.131 13.6899C19.3999 13.5271 18.7207 14.1291 18.7811 14.8757C18.8049 15.1605 18.8428 15.4538 18.8976 15.7541Z" fill="#1BAF68"/>
</g>
<path d="M7.04927 26.1002C7.94794 26.7042 7.94794 28.0269 7.04927 28.6309L5.06261 29.9655C3.95994 30.7069 2.43061 30.1815 2.06261 28.9042C1.77461 27.9042 1.76927 26.8415 2.05594 25.8362C2.42127 24.5535 3.95327 24.0202 5.05994 24.7642L7.04927 26.1002Z" fill="#FFCC47"/>
<path d="M63.4994 25.8362C63.786 26.8415 63.7807 27.9042 63.4927 28.9042C63.1247 30.1815 61.5954 30.7069 60.4927 29.9655L58.506 28.6309C57.6074 28.0269 57.6074 26.7042 58.506 26.1002L60.4954 24.7642C61.602 24.0202 63.134 24.5535 63.4994 25.8362Z" fill="#FFCC47"/>
<path d="M53.8999 10.7032C52.9579 10.7032 52.4717 9.55556 53.1459 8.88196L55.2472 6.78196C55.6639 6.36543 56.3392 6.36569 56.7556 6.78249C57.172 7.19916 57.1719 7.87449 56.7551 8.29089L54.6537 10.3909C54.4456 10.5992 54.1727 10.7032 53.8999 10.7032Z" fill="#FFCC47"/>
<path d="M11.6543 10.7029C11.3814 10.7029 11.1086 10.5989 10.9003 10.3908L8.79899 8.29079C8.38233 7.87439 8.38206 7.19906 8.79846 6.78239C9.21486 6.36573 9.89019 6.36546 10.3069 6.78186L12.4082 8.88186C13.0829 9.55573 12.5961 10.7029 11.6543 10.7029Z" fill="#FFCC47"/>
<path d="M56.002 58.9207C55.7291 58.9207 55.4563 58.8167 55.248 58.6086L53.1467 56.5086C52.73 56.0922 52.7297 55.4169 53.1461 55.0002C53.5626 54.5834 54.238 54.5833 54.6545 54.9997L56.7559 57.0997C57.4305 57.7736 56.9437 58.9207 56.002 58.9207Z" fill="#FFCC47"/>
<path d="M9.55415 58.9209C8.61215 58.9209 8.12602 57.7733 8.80015 57.0997L10.9015 54.9997C11.3182 54.5832 11.9935 54.5835 12.4099 55.0003C12.8263 55.4169 12.8262 56.0923 12.4094 56.5087L10.308 58.6087C10.0999 58.8169 9.82695 58.9209 9.55415 58.9209Z" fill="#FFCC47"/>
<path d="M32.7776 4.27995C32.1885 4.27995 31.7109 3.93292 31.7109 3.50489V1.47037C31.7109 1.04234 32.1885 0.695312 32.7776 0.695312C33.3667 0.695312 33.8443 1.04234 33.8443 1.47037V3.50489C33.8443 3.93292 33.3667 4.27995 32.7776 4.27995Z" fill="#FFCC47"/>
<path d="M32.7776 64.6947C32.1885 64.6947 31.7109 64.3496 31.7109 63.9239V61.9007C31.7109 61.475 32.1885 61.1299 32.7776 61.1299C33.3667 61.1299 33.8443 61.475 33.8443 61.9007V63.9239C33.8443 64.3496 33.3667 64.6947 32.7776 64.6947Z" fill="#FFCC47"/>
<g style="mix-blend-mode:multiply">
<path fill-rule="evenodd" clip-rule="evenodd" d="M32.2475 33.626C32.6333 33.4475 33.0907 33.6156 33.2692 34.0014C33.3888 34.2598 33.6636 34.6824 34.0638 35.0222C34.4565 35.3557 34.9231 35.5726 35.4587 35.547C36.5872 35.4932 37.0799 34.6531 37.1799 34.2807C37.2901 33.8702 37.7123 33.6267 38.1228 33.7369C38.5334 33.8472 38.7768 34.2694 38.6666 34.6799C38.4548 35.4688 37.5397 36.9889 35.5321 37.0847C34.4996 37.1339 33.6646 36.7027 33.0674 36.1956C32.4776 35.6948 32.0741 35.0843 31.8721 34.6478C31.6936 34.262 31.8617 33.8045 32.2475 33.626Z" fill="#1BAF68"/>
</g>
<ellipse cx="30.167" cy="28.6154" rx="3.64552" ry="3.89661" fill="white"/>
<path fill-rule="evenodd" clip-rule="evenodd" d="M32.0305 25.2656C31.4852 24.9183 30.8479 24.7188 30.167 24.7188C28.1536 24.7188 26.5215 26.4633 26.5215 28.6154C26.5215 30.3792 27.618 31.8694 29.1222 32.3496L32.0305 25.2656Z" fill="#1BAF68"/>
<g style="mix-blend-mode:multiply">
<path fill-rule="evenodd" clip-rule="evenodd" d="M32.0305 25.2656C31.4852 24.9183 30.8479 24.7188 30.167 24.7188C28.1536 24.7188 26.5215 26.4633 26.5215 28.6154C26.5215 30.3792 27.618 31.8694 29.1222 32.3496L32.0305 25.2656Z" fill="#1BAF68"/>
</g>
<ellipse cx="37.8209" cy="27.7356" rx="3.45565" ry="3.69366" fill="white"/>
<path fill-rule="evenodd" clip-rule="evenodd" d="M39.7743 24.6883C39.2186 24.2806 38.5458 24.042 37.8209 24.042C35.9124 24.042 34.3652 25.6957 34.3652 27.7356C34.3652 29.4517 35.4601 30.8944 36.9438 31.3093L39.7743 24.6883Z" fill="#1BAF68"/>
<g style="mix-blend-mode:multiply">
<path fill-rule="evenodd" clip-rule="evenodd" d="M39.7743 24.6883C39.2186 24.2806 38.5458 24.042 37.8209 24.042C35.9124 24.042 34.3652 25.6957 34.3652 27.7356C34.3652 29.4517 35.4601 30.8944 36.9438 31.3093L39.7743 24.6883Z" fill="#1BAF68"/>
</g>
</g>
<defs>
<clipPath id="clip0_290_11884">
<rect width="64" height="64" fill="white" transform="translate(0.777344 0.695312)"/>
</clipPath>
</defs>
</svg>
