<svg width="72" height="72" viewBox="0 0 72 72" fill="none" xmlns="http://www.w3.org/2000/svg">
<g filter="url(#filter0_i_8222_35928)">
<rect width="72" height="71.9998" rx="35.9999" fill="#1AA662"/>
<path d="M23.5625 23.387V34.5961V38.8097V44.2369V48.6142C23.5625 49.1733 24.0125 49.6369 24.5852 49.6369C25.1443 49.6369 25.608 49.1733 25.608 48.6142V44.2369V39.8324H33.408C34.158 39.8324 34.7716 39.2188 34.7716 38.4688V37.7869V24.4097V23.7279C34.7716 22.9779 34.158 22.3643 33.408 22.3643H24.5852C24.0125 22.3643 23.5625 22.8279 23.5625 23.387Z" fill="white"/>
<path d="M43.5255 35.0865C43.0891 34.7047 42.8437 34.2274 42.8437 33.7229C42.8437 33.2183 43.0891 32.7411 43.5255 32.3592L47.63 28.8547C48.3664 28.2274 48.6255 27.2865 48.2982 26.4138C47.9437 25.4456 46.9891 24.8184 45.871 24.8184H38.18C37.43 24.8184 36.8164 25.432 36.8164 26.182V26.8638V40.582V41.2638C36.8164 42.0138 37.43 42.6274 38.18 42.6274H45.871C46.9891 42.6274 47.9437 42.0001 48.2982 41.032C48.3937 40.7865 48.4346 40.5274 48.4346 40.2683C48.4346 39.6411 48.1619 39.041 47.63 38.591L43.5255 35.0865Z" fill="white"/>
<g style="mix-blend-mode:screen" opacity="0.49">
<path d="M36.0139 7.80993C37.8038 7.76864 39.6547 7.88814 41.5349 8.18401C50.0694 9.52705 56.914 14.1434 59.6947 19.7348" stroke="white" stroke-width="5.61038" stroke-linecap="round"/>
</g>
</g>
<defs>
<filter id="filter0_i_8222_35928" x="0" y="0" width="72" height="72" filterUnits="userSpaceOnUse" color-interpolation-filters="sRGB">
<feFlood flood-opacity="0" result="BackgroundImageFix"/>
<feBlend mode="normal" in="SourceGraphic" in2="BackgroundImageFix" result="shape"/>
<feColorMatrix in="SourceAlpha" type="matrix" values="0 0 0 0 0 0 0 0 0 0 0 0 0 0 0 0 0 0 127 0" result="hardAlpha"/>
<feOffset dy="-5.72727"/>
<feComposite in2="hardAlpha" operator="arithmetic" k2="-1" k3="1"/>
<feColorMatrix type="matrix" values="0 0 0 0 0.0908667 0 0 0 0 0.152049 0 0 0 0 0.0896181 0 0 0 0.2 0"/>
<feBlend mode="normal" in2="shape" result="effect1_innerShadow_8222_35928"/>
</filter>
</defs>
</svg>
