<svg width="64" height="64" viewBox="0 0 64 64" fill="none" xmlns="http://www.w3.org/2000/svg">
<g clip-path="url(#clip0_462_22894)">
<g filter="url(#filter0_i_462_22894)">
<path d="M64 32C64 40.3307 60.8166 47.9178 55.6 53.6114C54.963 54.3067 51.8987 51.7633 51.2031 52.4C50.4374 53.1009 52.0344 56.9754 51.2031 57.6C45.8544 61.6186 39.2053 64 32 64C29.0932 64 26.2769 63.6124 23.6 62.8861C22.7867 62.6655 25.1862 59.8818 24.4 59.6C23.4448 59.2576 19.3107 61.4028 18.4 60.9746C7.52724 55.8623 0 44.8102 0 32C0 31.2911 1.9546 30.2974 2 29.6C2.01428 29.3806 0.169687 28.6246 0.247575 28C2.21597 12.2148 15.6815 0 32 0C33.428 0 33.0215 5.01871 34.4 5.2C35.9677 5.40616 39.3124 0.800626 40.8 1.22522C49.0052 3.56707 55.8639 9.10181 59.9465 16.4C60.3118 17.0529 58.4802 18.5199 58.8 19.2C59.1682 19.9832 61.6802 19.9837 61.9853 20.8C63.2879 24.2859 64 28.0598 64 32Z" fill="#3D775C"/>
</g>
<mask id="mask0_462_22894" style="mask-type:alpha" maskUnits="userSpaceOnUse" x="0" y="0" width="64" height="64">
<path fill-rule="evenodd" clip-rule="evenodd" d="M55.6 53.6114C60.8166 47.9178 64 40.3307 64 32C64 28.0598 63.2879 24.2859 61.9853 20.8C61.83 20.3845 61.1029 20.1803 60.3778 19.9767C59.6784 19.7804 58.9808 19.5845 58.8 19.2C58.6414 18.8627 59.0119 18.332 59.3812 17.8029C59.7565 17.2651 60.1306 16.7291 59.9465 16.4C55.8639 9.10181 49.0052 3.56707 40.8 1.22522C40.0396 1.00819 38.794 2.10536 37.5486 3.20241C36.3574 4.25165 35.1664 5.30078 34.4 5.2C33.7213 5.11074 33.4753 3.84888 33.23 2.59069C32.9771 1.29339 32.7249 0 32 0C15.6815 0 2.21597 12.2148 0.247575 28C0.198353 28.3947 0.916896 28.8419 1.44888 29.173C1.75871 29.3658 2.00526 29.5192 2 29.6C1.97772 29.9423 1.49558 30.3559 1.01033 30.7722C0.506842 31.2042 0 31.639 0 32C0 44.8102 7.52724 55.8623 18.4 60.9746C18.8666 61.194 20.1796 60.7377 21.4776 60.2867C22.7127 59.8575 23.9343 59.433 24.4 59.6C24.7937 59.7411 24.3887 60.5094 23.9882 61.2691C23.5888 62.0268 23.1939 62.7759 23.6 62.8861C26.2769 63.6124 29.0932 64 32 64C39.2053 64 45.8544 61.6186 51.2031 57.6C51.6247 57.2833 51.4218 56.1307 51.2192 54.9801C51.0223 53.8618 50.8257 52.7454 51.2031 52.4C51.5484 52.084 52.4772 52.5514 53.4032 53.0174C54.3427 53.4902 55.2792 53.9616 55.6 53.6114ZM32.6316 16.9974C32.4341 15.3649 30.9506 14.2015 29.318 14.399C27.6855 14.5965 26.5222 16.0801 26.7197 17.7126L26.8344 18.661C23.477 19.9611 20.6044 22.5219 18.99 26.0552L18.9901 26.0548C17.2458 29.8722 17.321 34.0568 18.8522 37.6334C18.9046 37.7558 18.9586 37.8774 19.0144 37.9983C20.3971 40.9958 22.8184 43.5319 26.0563 45.0114C33.242 48.2948 41.7289 45.1313 45.0123 37.9456C46.7322 34.1814 46.6831 30.0602 45.2135 26.5169L46.7517 24.3328C47.6986 22.9883 47.3763 21.1308 46.0318 20.1839C44.6874 19.237 42.8298 19.5593 41.8829 20.9038L41.564 21.3566C41.1517 20.9864 40.7149 20.6378 40.2546 20.3136L40.6114 19.6025C41.3489 18.1327 40.7552 16.3433 39.2853 15.6059C37.8155 14.8684 36.0262 15.4621 35.2887 16.9319L34.7714 17.963C34.0882 17.8276 33.402 17.7437 32.7178 17.7096L32.6316 16.9974Z" fill="#D99B58"/>
</mask>
<g mask="url(#mask0_462_22894)">
<g style="mix-blend-mode:multiply" opacity="0.1">
<g style="mix-blend-mode:multiply">
<path d="M92.6152 100.239C95.7019 96.7887 98.1274 92.6995 99.8473 88.0462C100.479 86.2245 101.351 82.2561 97.7846 79.6201C92.9683 76.0414 87.4029 76.3876 83.6481 76.5504C77.8949 76.9576 72.5062 77.9918 67.5436 79.6414C62.4299 81.2153 57.5796 83.1601 53.0125 85.468C48.6369 87.6999 43.185 89.8552 41.0063 94.4474C40.8673 94.5804 41.3931 94.8517 41.5137 94.6995L41.6099 94.6075C41.7382 94.4848 41.2967 94.2802 41.1821 94.353C48.5335 89.292 56.6578 85.1433 65.486 81.9419C69.8334 80.405 74.4357 79.2277 79.27 78.4159C81.8635 77.9633 84.5965 77.7385 87.4508 77.7431C89.8513 77.7697 95.0153 77.8813 97.7393 81.028C100.792 84.561 97.5898 89.4316 96.7373 91.2798C94.7523 95.3833 92.2311 99.0298 89.2048 102.174C86.0266 105.498 82.5512 108.516 78.7925 111.215C75.5243 114.019 71.9937 116.535 68.2139 118.754C68.0108 118.949 68.6376 119.197 68.7706 119.144C73.4572 116.682 77.7817 113.776 81.719 110.443C85.715 107.431 89.3535 104.024 92.6152 100.239Z" fill="#4F7A59"/>
</g>
<g style="mix-blend-mode:multiply">
<path d="M120.034 32.5537C120.183 32.4105 119.72 32.2264 119.627 32.2787C112.719 36.5283 106.654 41.8519 100.597 47.0563C93.9596 52.4173 86.725 57.1102 78.9307 61.1111C71.3515 65.3017 63.7879 69.5513 56.5772 74.1269C52.848 76.4779 49.1188 78.8289 45.4817 81.2762C43.8098 82.3963 42.1641 83.5652 40.6533 84.7895C40.0333 85.3827 39.2737 85.8513 38.6828 86.4535C38.2873 86.8319 37.9025 87.2001 37.5177 87.5683L37.5261 87.8552C37.3871 87.9882 37.2481 88.1212 37.1199 88.2439C36.9916 88.3666 37.4699 88.6097 37.5524 88.5676C51.5484 78.8645 66.5979 70.4768 81.3955 61.74C88.5496 58.0137 95.0372 53.4707 100.804 48.1495C106.524 42.2074 112.949 36.9966 120.034 32.5537Z" fill="#4F7A59"/>
</g>
<g style="mix-blend-mode:multiply">
<path d="M118.668 24.4936C118.764 24.4015 118.41 24.224 118.343 24.3251C117.074 25.8323 115.468 26.997 113.568 27.7873C111.725 29.071 109.883 30.3548 108.187 31.7927C104.642 34.7423 101.243 37.8459 97.5138 40.603C90.1749 46.1004 82.3978 51.0827 74.1825 55.55C66.5665 59.7021 59.5632 64.5587 52.1974 68.9509C45.0685 73.2269 38.2285 77.8905 31.0503 82.0293C30.8472 82.2236 31.4556 82.4529 31.5595 82.3903C46.9782 74.6451 60.8732 64.9649 75.8575 56.7871C84.0604 52.3069 91.7813 47.2801 99.02 41.7065C102.484 39.0565 105.792 36.223 108.906 33.2071C110.669 31.5196 112.57 29.9964 114.452 28.4539C116.211 27.5219 117.633 26.1867 118.668 24.4936Z" fill="#4F7A59"/>
</g>
<g style="mix-blend-mode:multiply">
<path d="M115.647 19.1957C115.764 19.0832 115.352 18.8877 115.248 18.9502C83.3169 35.2661 60.9554 62.7825 29.1239 79.2241C28.698 79.0785 28.2679 79.1212 28.4587 79.4918C28.229 80.0435 29.5021 80.4111 29.7789 80.2938C46.0215 72.6822 59.5917 61.7639 72.9493 50.9014C79.8224 45.395 86.5849 39.7731 93.7051 34.5465C97.2132 31.9644 100.787 29.4299 104.424 26.9827C106.336 25.7067 108.174 24.3537 110.068 23.0585C111.009 22.416 111.958 21.803 112.918 21.1798C113.638 20.7123 114.457 19.707 115.081 19.3317C114.985 19.4237 115.265 19.5242 115.302 19.5627C115.4 19.5486 115.481 19.5087 115.54 19.4456C115.599 19.3825 115.636 19.2975 115.647 19.1957Z" fill="#4F7A59"/>
</g>
<g style="mix-blend-mode:multiply">
<path d="M111.475 13.3805C107.244 14.0727 104.106 16.7426 100.86 18.7423C96.8131 21.3604 92.6111 23.795 88.5196 26.3451C80.2757 31.5528 72.1458 36.8727 64.1301 42.3046C56.1875 47.1317 47.1297 50.5799 37.1155 52.5887C32.0666 53.7316 27.4141 55.4171 22.6201 56.8692C18.4398 58.0838 14.6907 59.9033 11.4344 62.2977C11.1458 62.5739 12.0423 62.9331 12.2074 62.8489C15.8996 60.5478 20.0808 58.8454 24.6876 57.7675C29.5523 56.4322 34.2523 54.7749 39.2169 53.5653C48.341 51.6039 56.7184 48.5263 64.2442 44.3712C68.1694 42.0539 71.7273 39.203 75.4898 36.6727C79.5319 33.9854 83.7291 31.4816 87.845 28.8713C91.9608 26.2611 95.8913 23.6069 99.9382 20.9888C103.734 18.5367 107.07 14.9397 111.925 13.872C112.128 13.6777 111.666 13.345 111.475 13.3805Z" fill="#4F7A59"/>
</g>
<g style="mix-blend-mode:multiply">
<path d="M64.012 50.9346C59.0398 50.3814 54.9083 52.2691 50.9417 53.409C46.3931 54.4673 41.6455 55.2188 36.7166 55.6607C32.0439 56.5445 27.6726 57.8915 23.6396 59.6904C21.5625 60.387 19.5668 61.1901 17.6691 62.01C16.0239 62.7728 14.6327 64.657 12.6861 64.9337C12.6861 64.9337 12.5685 65.0462 12.6606 65.1424L12.8449 65.335C13.0106 65.5082 13.4853 65.5335 13.2274 65.264C12.9695 64.9944 22.3225 61.2456 22.8227 61.0621C27.1818 59.5835 31.5177 58.0165 36.155 56.9356C40.7923 55.8547 45.8564 55.8405 50.4539 54.7608C54.5328 53.8454 58.353 51.7392 63.025 51.6577C57.6611 56.0972 51.7449 59.922 45.3151 63.1071C41.8115 65.0947 38.3341 67.131 34.7491 69.0122C32.9299 69.9783 30.9924 70.7994 29.1102 71.6783C27.4595 72.8375 25.5546 73.6954 23.4297 74.2367C23.3228 74.339 23.5284 74.5111 23.6876 74.5063C27.2386 74.2803 29.9116 71.981 32.7911 70.7748C37.1769 68.9389 41.1858 66.4309 45.404 64.3127C52.649 60.973 59.1929 56.7472 64.9693 51.6782C65.3559 51.419 64.176 50.9989 64.012 50.9346Z" fill="#4F7A59"/>
</g>
<g style="mix-blend-mode:multiply">
<path d="M36.6479 62.8837C36.7969 62.483 35.9848 62.1906 35.7305 62.1388C28.4531 62.2792 22.5553 65.488 16.7506 67.9809C16.5689 68.1547 17.119 68.366 17.2384 68.3623C23.0868 66.7497 28.201 63.6636 34.7809 63.1579C34.0327 63.8738 32.9256 64.3431 32.1493 64.9013C30.7335 65.9925 29.1847 66.9324 27.512 67.7155C24.7743 69.0163 22.4283 70.8028 20.5237 73.0372C20.4168 73.1395 20.8 73.326 20.8932 73.2737C23.3398 71.1195 26.1458 69.3606 29.2764 68.0189C30.967 67.2204 32.516 66.2436 33.9119 65.0958C35.0504 64.6194 35.9747 63.8721 36.6479 62.8837Z" fill="#4F7A59"/>
</g>
<g style="mix-blend-mode:multiply">
<path d="M109.355 6.77743C109.355 6.77743 109.226 6.64265 109.199 6.74252C109.366 8.50051 106.299 9.14771 105.191 9.76553C103.505 10.6781 101.567 11.2417 99.7731 11.9991C95.9011 13.6017 92.3994 15.6982 88.6795 17.5239C81.4292 21.0311 74.3264 24.6923 66.9578 28.0544C63.5348 29.9907 60.3324 32.1931 57.3627 34.6532C54.2774 36.757 51.4285 39.1507 48.3937 41.2431C45.202 43.1917 41.6519 44.7006 37.7827 45.753C36.3893 46.2011 34.6808 46.213 33.3872 46.7869C31.8275 47.4679 30.4151 48.3029 28.966 49.0994C28.827 49.2323 29.2238 49.3689 29.2607 49.4074C30.5443 49.1013 31.4547 48.3409 32.6307 47.8795C34.4108 47.172 36.3449 46.7967 38.2141 46.2253C41.8594 45.1347 45.4552 43.907 48.8283 42.3393C56.4213 38.7624 61.5629 32.1097 69.1946 28.6802C77.0982 25.0642 84.7654 21.1582 92.4539 17.2317C96.2331 15.2754 99.8311 13.0869 103.702 11.2268C105.257 10.4767 106.602 9.48524 108.046 8.61957C108.849 8.38467 109.318 7.72354 109.355 6.77743Z" fill="#4F7A59"/>
</g>
<g style="mix-blend-mode:multiply">
<path d="M105.268 0.323818C105.386 0.211318 104.937 -0.0227426 104.867 0.118036C104.112 1.72557 101.751 2.10387 100.2 2.92322C98.32 3.911 96.2554 4.70625 94.4012 5.74277C90.5721 7.96802 86.5364 10.1698 82.3924 11.9588C78.4688 13.7214 74.2456 15.1068 70.5217 17.1208C66.5714 19.2408 63.1833 22.0767 59.617 24.6407C59.3711 24.8759 60.1328 25.1798 60.2688 25.0865C64.1756 22.75 67.8798 20.2017 72.0076 18.0962C76.1355 15.9907 80.6004 14.5584 84.7931 12.649C88.9858 10.7397 92.835 8.64258 96.4537 6.17606C98.1547 5.06493 100.077 4.18484 101.759 3.05446C103.254 2.52568 104.444 1.59924 105.268 0.323818Z" fill="#4F7A59"/>
</g>
<g style="mix-blend-mode:multiply">
<path d="M30.861 33.4256C36.8808 27.113 42.5796 20.4435 48.4229 13.9678C54.2662 7.49215 61.8831 2.52785 68.3859 -3.47251C71.5927 -6.54068 74.7561 -9.82545 77.8214 -13.1271C80.4747 -15.9606 84.0936 -17.7635 86.7807 -20.5189L86.9838 -20.7132C86.9838 -20.7132 86.9838 -20.7132 86.8917 -20.8095C86.8391 -20.8545 86.7821 -20.8887 86.7274 -20.9081C86.6726 -20.9274 86.6223 -20.9312 86.5822 -20.919L86.4005 -20.7451C83.7816 -18.2394 80.0242 -16.7097 77.2716 -14.408C73.9583 -11.6436 71.029 -8.43527 67.9183 -5.45914C61.1833 0.72652 53.3306 5.65831 47.0638 12.3548C41.1207 18.7047 35.5229 25.3513 29.9404 32.0568C24.358 38.7624 17.3376 44.1148 12.0529 51.0886C11.8926 51.2421 12.4582 51.5122 12.5971 51.3793C18.3228 45.0161 24.9618 39.5861 30.861 33.4256Z" fill="#4F7A59"/>
</g>
<g style="mix-blend-mode:multiply">
<path d="M48.7096 7.01257C51.9121 3.4691 53.8947 -1.15677 56.8732 -4.89157C60.0596 -8.75149 63.6833 -12.2185 67.3284 -15.706C70.9735 -19.1935 74.6334 -22.8795 78.8572 -25.7407C78.9962 -25.8736 78.5625 -26.0487 78.4799 -26.0066C74.137 -23.449 70.1368 -20.4838 66.5011 -17.1271C62.5815 -13.8195 58.8936 -10.2911 55.516 -6.39574C52.4056 -2.756 50.4414 1.88913 47.3125 5.5096C45.7318 7.21178 44.3318 9.0931 43.1204 11.1431C41.8083 13.431 39.766 15.1269 38.3035 17.3006C38.0684 17.5256 38.9756 17.8746 39.1068 17.7121C42.3937 14.2355 45.4643 10.5969 48.7096 7.01257Z" fill="#4F7A59"/>
</g>
<g style="mix-blend-mode:multiply">
<path d="M28.6308 25.3804C30.4298 22.5528 31.873 19.4388 33.801 16.746C35.7289 14.0532 37.7234 11.0018 39.4237 7.89986C41.124 4.79791 42.8303 1.61655 44.3571 -1.68815C45.0208 -3.13445 45.6827 -4.68965 46.3125 -6.21416C46.8961 -6.98817 47.0992 -8.09282 46.8966 -9.39137C46.8193 -9.68617 46.3321 -9.81014 46.1652 -9.83481C43.8104 -9.69577 41.9426 -8.76286 40.7622 -7.13616C38.1005 -4.58958 35.7472 -1.78488 32.8199 0.462675C27.4714 4.6949 21.61 8.34831 16.1801 12.474C6.28249 20.3144 -2.63144 29.2248 -10.5069 39.1504C-10.71 39.3447 -9.97265 39.7087 -9.80458 39.5848C-7.64464 37.7764 -6.00049 35.4289 -4.17213 33.2739C-2.34378 31.1189 0.044733 28.9075 1.9984 26.6695C6.13377 22.0122 10.7193 17.8096 15.7327 14.0822C20.6905 10.2976 25.9062 6.78249 31.0113 3.15189C33.3675 1.46302 35.5922 -0.370444 37.6854 -2.34851C38.8933 -3.50419 39.854 -4.93964 41.0357 -6.14405C42.1766 -7.72666 43.8537 -8.7776 45.951 -9.22416C45.7277 -7.73216 45.1961 -6.45071 44.378 -5.43273C43.6103 -3.92387 42.8903 -2.38673 42.1518 -0.86884C40.559 2.38833 38.7974 5.51193 37.065 8.64456C35.4941 11.4752 33.5886 13.9989 31.7937 16.6382C29.9988 19.2775 28.4808 22.4631 26.6556 25.2419C19.9653 35.6258 12.7146 45.4026 4.59697 54.4231C4.43662 54.5765 5.02065 54.8659 5.13823 54.7534C14.7252 46.7979 21.8265 36.0946 28.6308 25.3804Z" fill="#4F7A59"/>
</g>
<g style="mix-blend-mode:multiply">
<path d="M12.5651 35.9169C13.1428 34.9586 18.5766 25.8507 14.9888 24.3049C13.5732 23.905 12.3471 24.0225 11.5191 24.6374C8.78753 25.9309 6.39695 27.6496 4.3864 29.7654C-0.289178 33.7594 -4.48581 38.254 -8.80069 42.6036C-8.96104 42.757 -8.39543 43.0271 -8.25943 42.9339C-4.26139 39.7725 -0.56582 36.2736 3.33238 32.9865C6.41815 29.9169 10.0759 27.4557 14.2437 25.6447C15.1002 25.3415 14.3344 26.9593 14.2359 27.3485C13.8162 28.7786 13.2913 30.1304 12.6635 31.3974C11.7339 33.7105 10.6181 35.8739 9.32173 37.8769C6.46646 42.4895 3.79063 47.2254 0.498034 51.4451C0.380451 51.5576 0.792768 51.7532 0.899662 51.6509C5.24325 46.8408 9.13744 41.5885 12.5651 35.9169Z" fill="#4F7A59"/>
</g>
<g style="mix-blend-mode:multiply">
<path d="M6.0083 37.8378C6.10451 37.7457 5.73199 37.549 5.64648 37.6308C2.60298 40.2236 -0.167196 43.1079 -2.65125 46.2704C-3.04676 46.6488 -1.4789 47.3246 -1.19802 47.0189C1.29718 44.0416 3.49468 40.7959 6.0083 37.8378Z" fill="#4F7A59"/>
</g>
<g style="mix-blend-mode:multiply">
<path d="M33.5887 5.84437C33.6742 5.76255 33.3492 5.59408 33.2928 5.68492C31.5063 8.61119 29.1321 11.0302 27.14 13.7844C25.1479 16.5386 23.4093 19.087 21.4688 21.6812C21.1909 21.9471 22.1872 22.4321 22.4088 22.257C27.3363 17.9316 31.1003 12.406 33.5887 5.84437Z" fill="#4F7A59"/>
</g>
<g style="mix-blend-mode:multiply">
<path d="M22.8092 15.8276C22.9267 15.7151 22.4776 15.4811 22.4075 15.6218C21.8632 16.7579 21.1764 17.7728 20.3549 18.6552C20.2266 18.7779 20.6865 19.0017 20.7827 18.9097C21.6718 18.0836 22.3534 17.0469 22.8092 15.8276Z" fill="#4F7A59"/>
</g>
<g style="mix-blend-mode:multiply">
<path d="M49.7524 -31.0807C50.9044 -32.5516 52.035 -34.0021 53.3527 -35.2997C54.9347 -36.8134 57.016 -37.6983 58.6319 -39.1337C58.7815 -39.2769 58.3187 -39.461 58.2546 -39.3996C55.4829 -37.3747 52.0473 -36.3003 49.6934 -33.7531C46.8246 -30.4982 43.6646 -27.5364 40.2267 -24.8801C33.5417 -20.0331 26.8675 -15.1963 19.8064 -10.7638C5.83396 -2.04205 -8.84739 6.06721 -21.008 16.8539C-21.1256 16.9664 -20.7686 17.1042 -20.6967 17.0723C-7.57111 7.05877 7.61057 -0.570354 21.722 -9.42507C25.1578 -11.5691 28.5829 -13.7029 31.8393 -15.9703C35.0957 -18.2377 38.6586 -20.3559 41.5602 -23.0583C42.9712 -24.4083 44.7661 -25.3142 46.1403 -26.7027C47.5144 -28.0912 48.582 -29.629 49.7524 -31.0807Z" fill="#4F7A59"/>
</g>
<g style="mix-blend-mode:multiply">
<path d="M14.4806 -0.621584C14.5875 -0.723857 14.1674 -0.948895 14.0498 -0.836395C3.69362 9.18269 -11.5234 13.8217 -21.0953 24.6392C-21.277 24.8131 -20.6163 25.1398 -20.4589 25.0261C-14.7479 21.2583 -8.90019 17.6549 -3.33652 13.7331C3.2664 9.69475 9.22125 4.89711 14.4806 -0.621584Z" fill="#4F7A59"/>
</g>
<g style="mix-blend-mode:multiply">
<path d="M17.4158 -26.9564C19.2976 -29.1625 21.6768 -30.8488 23.7981 -32.8046C23.9157 -32.9171 23.4849 -33.1319 23.3994 -33.0501C21.2977 -31.2236 18.5203 -30.1889 16.4923 -28.2855C14.4643 -26.382 12.3234 -24.2968 10.239 -22.3025C5.73875 -17.9969 0.813018 -14.2429 -4.08179 -10.3711C-8.66956 -6.75607 -12.9073 -2.77527 -17.5688 0.7627C-19.9461 2.55785 -22.7103 3.94868 -24.9772 5.85936C-27.244 7.77003 -29.1247 9.82753 -31.2091 11.8218C-31.3587 11.965 -30.8038 12.2454 -30.6542 12.1022C-28.3666 9.91361 -25.9686 7.8405 -23.4339 5.93165C-20.8991 4.02279 -18.0178 2.92555 -15.4028 1.2718C-10.37 -1.92081 -6.19041 -5.91966 -1.68883 -9.71033C2.81276 -13.501 7.50857 -17.3669 12.085 -21.2291C13.974 -22.9996 15.6712 -24.9922 17.4158 -26.9564Z" fill="#4F7A59"/>
</g>
<g style="mix-blend-mode:multiply">
<path d="M81.604 66.923C81.5115 66.8634 81.4178 66.8161 81.3265 66.7828C81.2344 66.6865 80.8346 66.5897 80.9683 66.7936C81.1021 66.9976 78.3431 68.0515 77.8293 68.2849C75.9424 69.0946 74.1077 70.0018 72.2837 70.8987C68.7717 72.5994 65.5021 74.5106 62.3711 76.695C61.9435 77.104 63.2 77.5614 63.4554 77.4645C70.07 74.7353 76.183 71.3508 81.752 67.3345C81.8026 67.3448 81.8433 67.333 81.8652 67.3017C81.8871 67.2704 81.8883 67.2222 81.8687 67.1676C81.859 67.1406 81.8444 67.1128 81.8259 67.0859C81.8073 67.059 81.7851 67.0334 81.7605 67.0107C81.7109 66.9649 81.6546 66.9333 81.604 66.923Z" fill="#4F7A59"/>
</g>
</g>
</g>
<g clip-path="url(#clip1_462_22894)">
<path d="M39.875 26.5H39V23C39 19.1395 35.8605 16 32 16C28.1395 16 25 19.1395 25 23V26.5H24.125C22.6783 26.5 21.5 27.6772 21.5 29.125V41.375C21.5 42.8228 22.6783 44 24.125 44H39.875C41.3217 44 42.5 42.8228 42.5 41.375V29.125C42.5 27.6772 41.3217 26.5 39.875 26.5ZM27.3333 23C27.3333 20.4263 29.4263 18.3333 32 18.3333C34.5737 18.3333 36.6667 20.4263 36.6667 23V26.5H27.3333V23ZM33.1667 35.509V38.1667C33.1667 38.8107 32.6452 39.3333 32 39.3333C31.3548 39.3333 30.8333 38.8107 30.8333 38.1667V35.509C30.1392 35.1042 29.6667 34.3598 29.6667 33.5C29.6667 32.2132 30.7132 31.1667 32 31.1667C33.2868 31.1667 34.3333 32.2132 34.3333 33.5C34.3333 34.3598 33.8608 35.1042 33.1667 35.509Z" fill="#273430"/>
</g>
</g>
<defs>
<filter id="filter0_i_462_22894" x="0" y="0" width="64" height="64" filterUnits="userSpaceOnUse" color-interpolation-filters="sRGB">
<feFlood flood-opacity="0" result="BackgroundImageFix"/>
<feBlend mode="normal" in="SourceGraphic" in2="BackgroundImageFix" result="shape"/>
<feColorMatrix in="SourceAlpha" type="matrix" values="0 0 0 0 0 0 0 0 0 0 0 0 0 0 0 0 0 0 127 0" result="hardAlpha"/>
<feOffset dy="-4"/>
<feComposite in2="hardAlpha" operator="arithmetic" k2="-1" k3="1"/>
<feColorMatrix type="matrix" values="0 0 0 0 0.0597917 0 0 0 0 0.281875 0 0 0 0 0.220029 0 0 0 0.45 0"/>
<feBlend mode="normal" in2="shape" result="effect1_innerShadow_462_22894"/>
</filter>
<clipPath id="clip0_462_22894">
<rect width="64" height="64" rx="32" fill="white"/>
</clipPath>
<clipPath id="clip1_462_22894">
<rect width="28" height="28" fill="white" transform="translate(18 16)"/>
</clipPath>
</defs>
</svg>
