<svg width="25" height="25" viewBox="0 0 25 25" fill="none" xmlns="http://www.w3.org/2000/svg">
<g clip-path="url(#clip0_151_6476)">
<path opacity="0.1" d="M24.834 12.6953C24.834 19.3227 19.4614 24.6953 12.834 24.6953C6.20657 24.6953 0.833984 19.3227 0.833984 12.6953C0.833984 6.0679 6.20657 0.695312 12.834 0.695312C19.4614 0.695312 24.834 6.0679 24.834 12.6953Z" fill="#273430"/>
<path d="M9.1972 9.05853C9.54867 8.70705 10.1185 8.70705 10.47 9.05853L12.8336 11.4221L15.1972 9.05855C15.5487 8.70708 16.1185 8.70708 16.47 9.05855C16.8215 9.41002 16.8215 9.97987 16.47 10.3313L14.1064 12.6949L16.47 15.0585C16.8214 15.41 16.8214 15.9798 16.47 16.3313C16.1185 16.6828 15.5486 16.6828 15.1972 16.3313L12.8336 13.9677L10.47 16.3313C10.1185 16.6828 9.5487 16.6828 9.19722 16.3313C8.84575 15.9798 8.84575 15.41 9.19722 15.0585L11.5608 12.6949L9.1972 10.3313C8.84573 9.97985 8.84573 9.41 9.1972 9.05853Z" fill="#273430"/>
</g>
<defs>
<clipPath id="clip0_151_6476">
<rect width="24" height="24" fill="white" transform="translate(0.833984 0.695312)"/>
</clipPath>
</defs>
</svg>
