<svg width="113" height="122" viewBox="0 0 113 122" fill="none" xmlns="http://www.w3.org/2000/svg">
<rect x="86.9297" y="56.7588" width="20.3109" height="54.9508" rx="10.1555" fill="#40AD5B"/>
<path d="M86.9297 82.3557C86.9297 76.7469 91.4764 72.2002 97.0852 72.2002C102.694 72.2002 107.241 76.747 107.241 82.3557V101.136H86.9297V82.3557Z" fill="#EDCA12"/>
<path d="M64.8984 25.9483C69.0873 23.4304 70.5146 17.9116 67.2959 14.2338C65.428 12.0994 63.4914 10.304 61.5966 8.95007C59.7019 7.59611 57.8861 6.71011 56.2529 6.34264C54.6198 5.97518 53.2013 6.13345 52.0783 6.80842C50.9554 7.48339 50.1501 8.66184 49.7083 10.2765C49.2666 11.8911 49.1971 13.9104 49.5037 16.2189C49.8104 18.5274 50.4873 21.08 51.4957 23.7309C53.2334 28.2989 58.7768 29.6278 62.9657 27.11L63.932 26.5291L64.8984 25.9483Z" fill="#63BE79"/>
<path d="M53.8536 34.1186C57.4742 30.8357 57.8033 25.1448 53.9321 22.1616C51.6855 20.4303 49.4373 19.0449 47.3158 18.0844C45.1943 17.1239 43.2411 16.6071 41.5677 16.5636C39.8942 16.52 38.5334 16.9506 37.5628 17.8306C36.5922 18.7107 36.0309 20.023 35.9109 21.6927C35.7909 23.3624 36.1146 25.3567 36.8634 27.5618C37.6123 29.7669 38.7717 32.1396 40.2754 34.5445C42.8666 38.6884 48.5625 38.9162 52.1831 35.6333L53.0183 34.876L53.8536 34.1186Z" fill="#63BE79"/>
<path d="M55.3306 43.6953C56.6565 38.9912 53.9148 33.9934 49.0505 33.5199C46.2276 33.2451 43.5868 33.2643 41.279 33.5763C38.9712 33.8883 37.0416 34.4871 35.6002 35.3384C34.1589 36.1897 33.2341 37.277 32.8786 38.538C32.5232 39.799 32.744 41.2092 33.5286 42.6879C34.3131 44.1667 35.646 45.6851 37.4511 47.1565C39.2562 48.6278 41.4982 50.0233 44.049 51.2632C48.4446 53.3999 53.3928 50.5697 54.7188 45.8656L55.0247 44.7805L55.3306 43.6953Z" fill="#63BE79"/>
<path d="M54.3776 102.319H29.8584C17.2772 102.319 7.07812 92.1202 7.07812 79.539V72.8962C7.07812 63.9838 14.3031 56.7588 23.2156 56.7588H24.885C32.8755 56.7588 39.353 63.2364 39.353 71.2269V77.8001C39.353 82.1603 35.8184 85.6949 31.4582 85.6949V85.6949C27.098 85.6949 23.5634 82.1603 23.5634 77.8001V75.0525" stroke="#40AD5B" stroke-width="12.2422" stroke-linecap="round"/>
<path d="M37.9609 47.967C37.9609 28.836 53.4697 13.3271 72.6008 13.3271C91.7319 13.3271 107.241 28.836 107.241 47.967V84.9719C107.241 97.6491 96.9638 107.926 84.2866 107.926H60.9151C48.2379 107.926 37.9609 97.6491 37.9609 84.9719V47.967Z" fill="#63BE79"/>
<rect x="75.1758" y="80.2695" width="20.1718" height="41.5957" rx="10.0859" fill="#63BE79"/>
<rect x="52.9844" y="80.2695" width="20.1718" height="41.5957" rx="10.0859" fill="#63BE79"/>
<path d="M37.9609 72.2012H107.241V84.9998C107.241 97.6771 96.9638 107.954 84.2866 107.954H60.9151C48.2379 107.954 37.9609 97.6771 37.9609 84.9998V72.2012Z" fill="#FFDE33"/>
<path d="M37.9609 91.3994H107.241C107.241 100.542 99.8289 107.954 90.6859 107.954H54.5158C45.3728 107.954 37.9609 100.542 37.9609 91.3994Z" fill="#3190E6"/>
<path d="M61.4727 72.2012H68.4285V98.7723H61.4727V72.2012Z" fill="#3190E6"/>
<path d="M97.7812 72.2012H104.737V98.7723H97.7812V72.2012Z" fill="#3190E6"/>
<rect x="37.9609" y="72.2012" width="20.3109" height="39.5089" rx="10.1555" fill="#63BE79"/>
<path d="M37.9609 82.3566C37.9609 76.7479 42.5077 72.2012 48.1164 72.2012C53.7251 72.2012 58.2719 76.7479 58.2719 82.3566V101.137H37.9609V82.3566Z" fill="#FFDE33"/>
<path d="M77.0589 25.6669C82.5108 25.6669 87.047 21.2107 86.0833 15.8446C85.524 12.7306 84.7042 9.90105 83.6707 7.51766C82.6373 5.13427 81.4104 3.24366 80.0601 1.95378C78.7099 0.663894 77.2627 -1.47335e-07 75.8012 0C74.3396 1.47335e-07 72.8924 0.663894 71.5422 1.95378C70.1919 3.24366 68.965 5.13427 67.9316 7.51766C66.8981 9.90106 66.0783 12.7306 65.519 15.8446C64.5553 21.2107 69.0915 25.6669 74.5434 25.6669H75.8012H77.0589Z" fill="#6DD887"/>
<circle cx="69.6122" cy="41.9442" r="13.4247" fill="#F3F7FE"/>
<circle cx="74.4131" cy="49.8613" r="1.53028" fill="#442005"/>
<path d="M83.0369 42.0143C83.0369 40.1508 82.6897 38.3056 82.015 36.5841C81.3403 34.8625 80.3515 33.2982 79.1049 31.9805C77.8583 30.6629 76.3784 29.6177 74.7496 28.9046C73.1208 28.1915 71.3752 27.8244 69.6122 27.8244C67.8492 27.8244 66.1035 28.1915 64.4748 28.9046C62.846 29.6177 61.3661 30.6629 60.1195 31.9805C58.8729 33.2982 57.884 34.8625 57.2094 36.5841C56.5347 38.3056 56.1875 40.1508 56.1875 42.0143L69.6122 42.0143H83.0369Z" fill="#73D18A"/>
<circle cx="60.0841" cy="57.1778" r="1.25204" fill="#C1F9A6"/>
<circle cx="62.7964" cy="59.8901" r="0.765138" fill="#C1F9A6"/>
<circle cx="67.0372" cy="57.1778" r="1.25204" fill="#C1F9A6"/>
<circle cx="98.6864" cy="41.9433" r="13.4247" fill="#F3F7FE"/>
<circle cx="101.815" cy="49.8604" r="1.53028" fill="#442005"/>
<path d="M111.833 42.0124C111.833 40.1702 111.489 38.3459 110.822 36.6439C110.154 34.9419 109.175 33.3954 107.942 32.0927C106.708 30.79 105.243 29.7567 103.631 29.0517C102.02 28.3467 100.292 27.9838 98.5473 27.9838C96.8026 27.9838 95.075 28.3467 93.4631 29.0517C91.8512 29.7567 90.3867 30.79 89.153 32.0927C87.9193 33.3954 86.9407 34.9419 86.273 36.6439C85.6054 38.346 85.2617 40.1702 85.2617 42.0124L98.5473 42.0124H111.833Z" fill="#73D18A"/>
<path d="M90.8281 62.0459L90.7088 61.89V61.89C88.4805 58.9785 84.1243 58.8925 81.7828 61.7139L81.5074 62.0459" stroke="#186F2E" stroke-width="2.22586" stroke-linecap="round"/>
</svg>
