<svg width="128" height="128" viewBox="0 0 128 128" fill="none" xmlns="http://www.w3.org/2000/svg">
<path d="M11.0873 63.9219C8.86651 59.4028 10.7297 53.9391 15.2487 51.7183L31.9278 43.5219C36.4469 41.3011 41.9106 43.1642 44.1314 47.6833L51.7763 63.2401C53.9971 67.7592 52.1339 73.2229 47.6149 75.4437L30.9358 83.6401C26.4167 85.8609 20.953 83.9978 18.7322 79.4787L11.0873 63.9219Z" fill="#F2D9FF"/>
<path d="M29.2049 72.3214C28.778 72.5313 28.3725 72.6108 27.9886 72.5601C27.5978 72.4957 27.2834 72.3082 27.0454 71.9977C26.8005 71.6735 26.6662 71.2436 26.6425 70.7082L26.3451 57.1073C26.329 56.4483 26.4391 55.9069 26.6754 55.4831C26.9254 55.0524 27.2846 54.722 27.7528 54.4919C28.2211 54.2618 28.6883 54.1861 29.1544 54.2648C29.6343 54.3368 30.1371 54.577 30.6627 54.9855L41.2482 63.5308C41.6851 63.8632 41.9571 64.2254 42.0642 64.6173C42.1851 65.0025 42.1483 65.3625 41.9538 65.6974C41.7731 66.0256 41.4762 66.2912 41.063 66.4943C40.5121 66.765 40.0243 66.8508 39.5995 66.7518C39.1884 66.646 38.7305 66.3752 38.2256 65.9394L35.8208 63.8639L37.7846 64.2069L29.2732 68.3895L30.2223 66.6151L30.396 69.787C30.4188 70.4597 30.3603 70.9843 30.2204 71.3608C30.0806 71.7373 29.7421 72.0575 29.2049 72.3214ZM29.7521 58.6646L30.1677 65.5647L29.102 64.8573L35.1137 61.9031L35.0225 63.179L29.7934 58.6443L29.7521 58.6646Z" fill="#EDC8FF"/>
<path d="M89.8718 18.9215C92.1098 14.411 97.5807 12.5688 102.091 14.8068L118.739 23.0672C123.249 25.3052 125.091 30.7761 122.853 35.2866L115.149 50.814C112.911 55.3245 107.44 57.1667 102.929 54.9286L86.2819 46.6683C81.7713 44.4302 79.9292 38.9594 82.1672 34.4489L89.8718 18.9215Z" fill="#CDEBFF"/>
<path d="M100.284 42.9395C98.7045 42.1555 97.4981 41.1783 96.6652 40.0077C95.8324 38.8372 95.3869 37.5475 95.3286 36.1386C95.2839 34.7364 95.6301 33.2926 96.3671 31.8071C96.9166 30.6998 97.5846 29.7775 98.3711 29.0402C99.1712 28.3097 100.056 27.7811 101.026 27.4545C102.009 27.1346 103.051 27.0371 104.15 27.1618C105.269 27.2797 106.417 27.6302 107.591 28.2131C108.213 28.5214 108.817 28.9139 109.405 29.3908C110.013 29.8609 110.504 30.365 110.876 30.9032C111.154 31.2934 111.29 31.6807 111.284 32.065C111.279 32.4493 111.169 32.7901 110.954 33.0874C110.752 33.3914 110.494 33.6247 110.177 33.7875C109.861 33.9503 109.531 34.0052 109.187 33.9523C108.849 33.886 108.549 33.6779 108.285 33.3281C107.973 32.938 107.639 32.5952 107.28 32.2997C106.942 31.9973 106.557 31.7389 106.125 31.5245C105.288 31.1091 104.505 30.9227 103.777 30.9654C103.069 31.0012 102.423 31.2527 101.838 31.7196C101.253 32.1866 100.739 32.8657 100.297 33.757C99.8546 34.6483 99.6212 35.4749 99.5965 36.2368C99.5786 36.9852 99.7661 37.6588 100.159 38.2576C100.572 38.8497 101.197 39.3534 102.034 39.7688C102.386 39.9431 102.784 40.0902 103.229 40.2102C103.681 40.3166 104.15 40.3725 104.635 40.3778C105.127 40.4032 105.509 40.5335 105.779 40.7687C106.063 41.0105 106.239 41.2999 106.308 41.6368C106.39 41.9803 106.377 42.3276 106.27 42.6785C106.17 43.0159 105.969 43.303 105.666 43.5399C105.377 43.7835 105.01 43.9127 104.565 43.9276C103.952 43.9766 103.254 43.908 102.471 43.7216C101.702 43.5419 100.973 43.2812 100.284 42.9395Z" fill="#9ED8FF"/>
<path d="M92.9324 73.3327C95.9641 69.3124 101.681 68.5109 105.701 71.5425L120.539 82.7317C124.56 85.7633 125.361 91.4801 122.33 95.5004L111.893 109.34C108.862 113.361 103.145 114.162 99.1246 111.13L84.2863 99.9413C80.266 96.9097 79.4645 91.1929 82.4961 87.1726L92.9324 73.3327Z" fill="#FFECBC"/>
<path d="M94.5761 94.8217C94.0103 94.3951 93.6859 93.9239 93.6029 93.4081C93.5409 92.8894 93.7187 92.3531 94.1362 91.7995L101.148 82.5013C101.566 81.9476 102.028 81.6353 102.534 81.5643C103.062 81.4903 103.609 81.6666 104.175 82.0932L108.58 85.4152C109.495 86.1051 110.167 86.8289 110.596 87.5868C111.046 88.3418 111.254 89.0931 111.219 89.8407C111.183 90.5884 110.916 91.2932 110.417 91.9552C109.854 92.7014 109.157 93.176 108.324 93.3788C107.503 93.5908 106.653 93.5162 105.774 93.1551L105.992 92.8662C106.74 93.6762 107.145 94.529 107.206 95.4246C107.279 96.3293 106.998 97.203 106.362 98.0455C105.518 99.1649 104.448 99.7455 103.151 99.7873C101.876 99.8262 100.546 99.3237 99.1619 98.2799L94.5761 94.8217ZM97.8585 93.4735L100.549 95.5022C101.162 95.9651 101.694 96.1866 102.143 96.1666C102.614 96.1438 103.026 95.8976 103.38 95.4282C103.734 94.9588 103.853 94.5008 103.736 94.0543C103.632 93.6168 103.273 93.1666 102.659 92.7037L99.9688 90.6751L97.8585 93.4735ZM101.807 88.2377L104.172 90.0213C104.774 90.4751 105.295 90.6981 105.735 90.6902C106.187 90.6913 106.581 90.4693 106.917 90.0239C107.253 89.5786 107.354 89.1447 107.219 88.7222C107.106 88.2968 106.748 87.8572 106.146 87.4033L103.781 85.6198L101.807 88.2377Z" fill="#FFE296"/>
<path d="M33.4769 22.0906C34.039 17.7091 36.7502 14.3456 41.6106 12.0001C50.2348 7.59244 59.1891 5.98411 68.4735 7.17508C78.5925 8.4731 86.752 12.6478 92.9519 19.6993C99.0475 26.7374 101.513 34.7943 100.349 43.8702C98.9974 54.4065 91.4457 62.0268 77.6938 66.731C72.9136 68.4506 70.3295 70.8231 69.9415 73.8483L69.6605 76.0391C69.2858 78.96 67.9348 81.2256 65.6075 82.8357C63.2803 84.4458 60.3432 85.0234 56.7963 84.5684C52.8322 84.0599 49.7656 82.3411 47.5964 79.4119C45.4273 76.4828 44.6371 72.7231 45.2259 68.1331C46.1225 61.1436 50.5484 55.9854 58.5038 52.6584C58.7258 52.5808 59.5617 52.2639 61.0115 51.7076C62.135 51.2155 62.9776 50.8464 63.5394 50.6004C63.7748 50.4185 64.0624 50.2433 64.4021 50.0748C64.8461 49.9197 65.349 49.7191 65.9108 49.4731C66.4725 49.227 66.9232 49.0197 67.263 48.8512C67.707 48.6961 68.0467 48.5276 68.2821 48.3458C68.7395 48.0863 69.4257 47.6972 70.3405 47.1783C71.3731 46.5685 72.0137 46.1205 72.2625 45.8343C72.4979 45.6524 72.7333 45.4705 72.9687 45.2887C73.2175 45.0025 73.4663 44.7163 73.7151 44.4301C74.2127 43.8577 74.6059 43.2719 74.8948 42.6727C75.2105 41.865 75.3951 41.2524 75.4487 40.8351C75.81 38.0185 75.1066 35.6485 73.3387 33.7251C71.5707 31.8017 69.1741 30.646 66.1488 30.2579C62.6019 29.803 58.7313 30.6319 54.5369 32.7448C50.4603 34.7667 46.8571 35.577 43.7276 35.1755C41.0152 34.8276 38.6788 33.2025 36.7183 30.3001C34.7579 27.3977 33.9516 24.5903 34.2995 21.878L33.4769 22.0906ZM40.2041 102.322C40.6859 98.5664 42.4368 95.6629 45.4569 93.6115C48.477 91.5601 52.0734 90.802 56.2462 91.3372C60.2103 91.8457 63.3947 93.4736 65.7992 96.2209C68.1128 98.8505 69.0354 101.991 68.5671 105.642C68.0452 109.711 66.2354 112.66 63.1378 114.489C60.0401 116.318 56.4571 116.972 52.3886 116.45C48.1115 115.902 44.8095 114.365 42.4825 111.839C40.1555 109.314 39.253 106.017 39.7748 101.949L40.2041 102.322Z" fill="#7A6FFF"/>
</svg>
