<svg width="122" height="129" viewBox="0 0 122 129" fill="none" xmlns="http://www.w3.org/2000/svg">
<rect x="87.7812" y="56.7588" width="20.3109" height="54.9508" rx="10.1555" fill="#40AD5B"/>
<path d="M87.7812 82.3557C87.7812 76.7469 92.328 72.2002 97.9367 72.2002C103.545 72.2002 108.092 76.747 108.092 82.3557V101.136H87.7812V82.3557Z" fill="#EDCA12"/>
<g style="mix-blend-mode:multiply">
<ellipse cx="73.7892" cy="122.773" rx="30.0158" ry="5.62796" fill="#586E5D" fill-opacity="0.15"/>
</g>
<path d="M55.2291 102.32H30.7099C18.1288 102.32 7.92969 92.1212 7.92969 79.54V72.8972C7.92969 63.9847 15.1547 56.7598 24.0671 56.7598H25.7365C33.727 56.7598 40.2046 63.2373 40.2046 71.2278V77.8011C40.2046 82.1613 36.67 85.6959 32.3098 85.6959V85.6959C27.9496 85.6959 24.4149 82.1613 24.4149 77.8011V75.0535" stroke="#40AD5B" stroke-width="12.2422" stroke-linecap="round"/>
<path d="M65.75 25.9492C69.9388 23.4314 71.3661 17.9125 68.1475 14.2347C66.2796 12.1004 64.343 10.305 62.4482 8.95105C60.5535 7.59709 58.7377 6.71108 57.1045 6.34362C55.4714 5.97615 54.0528 6.13442 52.9299 6.8094C51.807 7.48437 51.0016 8.66282 50.5599 10.2775C50.1181 11.8921 50.0486 13.9113 50.3553 16.2199C50.662 18.5284 51.3389 21.081 52.3473 23.7319C54.085 28.2999 59.6284 29.6288 63.8173 27.1109L64.7836 26.5301L65.75 25.9492Z" fill="#63BE79"/>
<path d="M54.7051 34.1196C58.3257 30.8367 58.6549 25.1458 54.7836 22.1625C52.5371 20.4313 50.2888 19.0459 48.1674 18.0853C46.0459 17.1248 44.0927 16.6081 42.4192 16.5645C40.7458 16.521 39.385 16.9516 38.4144 17.8316C37.4438 18.7117 36.8825 20.024 36.7625 21.6937C36.6425 23.3634 36.9661 25.3577 37.715 27.5628C38.4639 29.7679 39.6233 32.1406 41.127 34.5454C43.7182 38.6894 49.414 38.9172 53.0346 35.6343L53.8699 34.8769L54.7051 34.1196Z" fill="#63BE79"/>
<path d="M56.1821 43.6962C57.5081 38.9922 54.7664 33.9944 49.902 33.5209C47.0791 33.2461 44.4384 33.2652 42.1306 33.5773C39.8228 33.8893 37.8931 34.4881 36.4518 35.3394C35.0105 36.1907 34.0857 37.2779 33.7302 38.539C33.3747 39.8 33.5956 41.2102 34.3801 42.6889C35.1647 44.1677 36.4976 45.6861 38.3027 47.1574C40.1078 48.6288 42.3498 50.0243 44.9006 51.2642C49.2962 53.4009 54.2444 50.5707 55.5704 45.8666L55.8763 44.7814L56.1821 43.6962Z" fill="#63BE79"/>
<rect x="76.2344" y="80.2695" width="20.1718" height="41.5957" rx="10.0859" fill="#63BE79"/>
<rect x="53.8359" y="80.2695" width="20.1718" height="41.5957" rx="10.0859" fill="#63BE79"/>
<path d="M38.8125 47.9954C38.8125 28.8643 54.3213 13.3555 73.4524 13.3555C92.5835 13.3555 108.092 28.8643 108.092 47.9954V85.0002C108.092 97.6774 97.8154 107.954 85.1381 107.954H61.7666C49.0894 107.954 38.8125 97.6774 38.8125 85.0002V47.9954Z" fill="#63BE79"/>
<path d="M77.3336 60.7637C77.6845 59.7384 78.7269 59.1188 79.7952 59.3004L81.7997 59.6413C84.8122 60.1536 87.8893 60.1569 90.9029 59.6511L93.1957 59.2662C94.19 59.0993 95.1766 59.6015 95.6268 60.5035C96.0804 61.4121 96.088 62.4794 95.6475 63.3944L95.5057 63.6888C95.0977 64.5365 94.3734 65.1903 93.4885 65.5098L92.868 65.7338C88.6577 67.2537 84.0468 67.2441 79.8429 65.7065L79.5427 65.5967C78.5318 65.227 77.7454 64.4152 77.408 63.3931L77.3207 63.1284C77.067 62.3598 77.0715 61.5294 77.3336 60.7637Z" fill="#242424"/>
<mask id="mask0_8181_38567" style="mask-type:alpha" maskUnits="userSpaceOnUse" x="77" y="59" width="19" height="8">
<path d="M77.3336 60.7637C77.6845 59.7384 78.7269 59.1188 79.7952 59.3004L81.7997 59.6413C84.8122 60.1536 87.8893 60.1569 90.9029 59.6511L93.1957 59.2662C94.19 59.0993 95.1766 59.6015 95.6268 60.5035C96.0804 61.4121 96.088 62.4794 95.6475 63.3944L95.5057 63.6888C95.0977 64.5365 94.3734 65.1903 93.4885 65.5098L92.868 65.7338C88.6577 67.2537 84.0468 67.2441 79.8429 65.7065L79.5427 65.5967C78.5318 65.227 77.7454 64.4152 77.408 63.3931L77.3207 63.1284C77.067 62.3598 77.0715 61.5294 77.3336 60.7637Z" fill="#E8E8E8"/>
</mask>
<g mask="url(#mask0_8181_38567)">
<circle cx="86.5837" cy="70.5573" r="7.49773" fill="#FF8761"/>
<rect x="81.5977" y="57.5117" width="3.55384" height="4.50731" rx="1.77692" fill="white"/>
<rect x="87.4922" y="56.9912" width="3.81388" height="4.9407" rx="1.90694" fill="white"/>
</g>
<path d="M38.8125 72.2012H108.092V84.9998C108.092 97.6771 97.8154 107.954 85.1381 107.954H61.7666C49.0894 107.954 38.8125 97.6771 38.8125 84.9998V72.2012Z" fill="#FFDE33"/>
<path d="M38.8125 91.3994H108.092C108.092 100.542 100.68 107.954 91.5375 107.954H55.3673C46.2243 107.954 38.8125 100.542 38.8125 91.3994Z" fill="#3190E6"/>
<path d="M62.3242 72.2012H69.28V98.7723H62.3242V72.2012Z" fill="#3190E6"/>
<path d="M98.6328 72.2012H105.589V98.7723H98.6328V72.2012Z" fill="#3190E6"/>
<rect width="20.3109" height="39.5089" rx="10.1555" transform="matrix(-1 0 0 1 59.125 72.2012)" fill="#63BE79"/>
<path d="M59.125 82.3566C59.125 76.7479 54.5782 72.2012 48.9695 72.2012C43.3608 72.2012 38.8141 76.7479 38.8141 82.3566V101.137H59.125V82.3566Z" fill="#FFDE33"/>
<path d="M77.9104 25.6669C83.3624 25.6669 87.8986 21.2107 86.9348 15.8446C86.3755 12.7306 85.5558 9.90105 84.5223 7.51766C83.4889 5.13427 82.262 3.24366 80.9117 1.95378C79.5614 0.663894 78.1142 -1.47335e-07 76.6527 0C75.1912 1.47335e-07 73.744 0.663894 72.3937 1.95378C71.0435 3.24366 69.8166 5.13427 68.7831 7.51766C67.7497 9.90106 66.9299 12.7306 66.3706 15.8446C65.4068 21.2107 69.9431 25.6669 75.395 25.6669H76.6527H77.9104Z" fill="#6DD887"/>
<circle cx="70.4638" cy="41.9433" r="13.4247" fill="#F3F7FE"/>
<ellipse cx="64.9669" cy="56.412" rx="7.37315" ry="4.24304" fill="#FF8A8A"/>
<circle cx="72.8996" cy="42.8478" r="7.09492" fill="#442005"/>
<circle cx="75.542" cy="40.4824" r="1.53028" fill="#F3F7FE"/>
<circle cx="99.538" cy="41.9433" r="13.4247" fill="#F3F7FE"/>
<circle cx="100.997" cy="42.8478" r="7.09492" fill="#442005"/>
<circle cx="103.64" cy="40.4824" r="1.53028" fill="#F3F7FE"/>
<ellipse cx="106.983" cy="56.412" rx="7.37315" ry="4.24304" fill="#FF8A8A"/>
</svg>
