<svg width="65" height="65" viewBox="0 0 65 65" fill="none" xmlns="http://www.w3.org/2000/svg">
<g clip-path="url(#clip0_328_15834)">
<path d="M43.0099 25.7802C41.303 25.7802 39.9194 24.3965 39.9194 22.6897V14.0144C39.9194 12.5689 38.7434 11.3929 37.2979 11.3929H20.613C19.1675 11.3929 17.9915 12.5688 17.9915 14.0144V22.6895C17.9915 24.3964 16.6078 25.78 14.901 25.78C13.1943 25.78 11.8105 24.3964 11.8105 22.6895V14.0144C11.8105 9.16066 15.7593 5.21191 20.6132 5.21191H37.298C42.1518 5.21191 46.1007 9.16066 46.1007 14.0144V22.6895C46.1005 24.3965 44.7168 25.7802 43.0099 25.7802Z" fill="#1BAF68"/>
<g style="mix-blend-mode:multiply" opacity="0.5">
<path d="M43.0099 25.7802C41.303 25.7802 39.9194 24.3965 39.9194 22.6897V14.0144C39.9194 12.5689 38.7434 11.3929 37.2979 11.3929H20.613C19.1675 11.3929 17.9915 12.5688 17.9915 14.0144V22.6895C17.9915 24.3964 16.6078 25.78 14.901 25.78C13.1943 25.78 11.8105 24.3964 11.8105 22.6895V14.0144C11.8105 9.16066 15.7593 5.21191 20.6132 5.21191H37.298C42.1518 5.21191 46.1007 9.16066 46.1007 14.0144V22.6895C46.1005 24.3965 44.7168 25.7802 43.0099 25.7802Z" fill="#1BAF68"/>
</g>
<g style="mix-blend-mode:multiply" opacity="0.5">
<path d="M20.6126 5.21191C19.71 5.21191 18.8389 5.34891 18.0184 5.60254C18.0006 5.79766 17.9902 5.99504 17.9902 6.19466V10.41C17.9902 11.1932 18.1295 11.9443 18.3845 12.64C18.847 11.8932 19.6714 11.3929 20.6126 11.3929H37.2975C38.2387 11.3929 39.0632 11.8932 39.5256 12.6402C39.7806 11.9443 39.9199 11.1932 39.9199 10.41V6.19466C39.9199 5.99491 39.9094 5.79766 39.8917 5.60254C39.0712 5.34904 38.2001 5.21191 37.2975 5.21191H20.6126Z" fill="#1BAF68"/>
</g>
<path d="M33.4216 3.81543H24.4893C23.176 3.81543 22.1113 4.88005 22.1113 6.19343V10.4088C22.1113 11.7222 23.1761 12.7868 24.4893 12.7868H33.4216C34.735 12.7868 35.7996 11.7222 35.7996 10.4088V6.19343C35.7997 4.88005 34.735 3.81543 33.4216 3.81543Z" fill="#FFCC47"/>
<path d="M55.0299 24.4248H2.88477V45.9388C2.88477 49.0706 5.42352 51.6093 8.55527 51.6093H49.3595C52.4913 51.6093 55.03 49.0706 55.03 45.9388V24.4248H55.0299Z" fill="#1BAF68"/>
<g style="mix-blend-mode:multiply">
<path d="M55.0299 24.4248H2.88477V37.7724C5.20689 39.4823 8.07302 40.4942 11.1715 40.4942H29.0606L28.7574 40.7974C25.8239 43.7309 25.4598 48.2756 27.6648 51.6093H49.3609C52.4918 51.6093 55.0299 49.0712 55.0299 45.9403V24.4248Z" fill="#1BAF68"/>
</g>
<path d="M7.7318 52.8701C9.0443 52.8701 10.1083 51.8061 10.1083 50.4936V47.7563C10.1083 45.8943 8.5988 44.3848 6.7368 44.3848H3.99955C2.68705 44.3848 1.62305 45.4488 1.62305 46.7613C1.62305 50.1351 4.35805 52.8701 7.7318 52.8701Z" fill="#FFCC47"/>
<path d="M50.1792 52.8701C48.8667 52.8701 47.8027 51.8061 47.8027 50.4936V47.7563C47.8027 45.8943 49.3122 44.3848 51.1742 44.3848H53.9115C55.224 44.3848 56.288 45.4488 56.288 46.7613C56.288 50.1351 53.553 52.8701 50.1792 52.8701Z" fill="#FFCC47"/>
<path d="M46.7427 36.374H11.1708C5.71116 36.374 1.28516 31.9482 1.28516 26.4884V21.6254C1.28516 18.0289 4.20078 15.1133 7.79728 15.1133H50.1159C53.7124 15.1133 56.628 18.0289 56.628 21.6254V26.4884C56.6282 31.9482 52.2023 36.374 46.7427 36.374Z" fill="#1BAF68"/>
<g style="mix-blend-mode:multiply">
<path fill-rule="evenodd" clip-rule="evenodd" d="M27.8353 29.42C28.2211 29.2415 28.6786 29.4095 28.8571 29.7953C28.9767 30.0537 29.2515 30.4763 29.6517 30.8161C30.0444 31.1496 30.5109 31.3665 31.0466 31.341C32.1751 31.2871 32.6678 30.4471 32.7678 30.0746C32.878 29.6641 33.3002 29.4206 33.7107 29.5309C34.1213 29.6411 34.3647 30.0633 34.2545 30.4739C34.0427 31.2628 33.1276 32.7828 31.12 32.8786C30.0875 32.9279 29.2524 32.4966 28.6553 31.9895C28.0655 31.4887 27.662 30.8783 27.46 30.4417C27.2815 30.0559 27.4495 29.5985 27.8353 29.42Z" fill="#1BAF68"/>
</g>
<ellipse cx="25.7549" cy="24.4083" rx="3.64552" ry="3.89661" fill="white"/>
<path fill-rule="evenodd" clip-rule="evenodd" d="M27.6184 21.0586C27.0731 20.7113 26.4358 20.5117 25.7549 20.5117C23.7415 20.5117 22.1094 22.2563 22.1094 24.4083C22.1094 26.1722 23.2059 27.6624 24.71 28.1425L27.6184 21.0586Z" fill="#1BAF68"/>
<g style="mix-blend-mode:multiply">
<path fill-rule="evenodd" clip-rule="evenodd" d="M27.6184 21.0586C27.0731 20.7113 26.4358 20.5117 25.7549 20.5117C23.7415 20.5117 22.1094 22.2563 22.1094 24.4083C22.1094 26.1722 23.2059 27.6624 24.71 28.1425L27.6184 21.0586Z" fill="#1BAF68"/>
</g>
<ellipse cx="33.4088" cy="23.5286" rx="3.45565" ry="3.69366" fill="white"/>
<path fill-rule="evenodd" clip-rule="evenodd" d="M35.363 20.4819C34.8072 20.0738 34.1341 19.835 33.4088 19.835C31.5003 19.835 29.9531 21.4887 29.9531 23.5286C29.9531 25.245 31.0484 26.688 32.5327 27.1025L35.363 20.4819Z" fill="#1BAF68"/>
<g style="mix-blend-mode:multiply">
<path fill-rule="evenodd" clip-rule="evenodd" d="M35.363 20.4819C34.8072 20.0738 34.1341 19.835 33.4088 19.835C31.5003 19.835 29.9531 21.4887 29.9531 23.5286C29.9531 25.245 31.0484 26.688 32.5327 27.1025L35.363 20.4819Z" fill="#1BAF68"/>
</g>
<path d="M43.7756 32.8818H46.2276C47.2374 32.8818 48.056 33.7005 48.056 34.7102V37.7793C48.056 39.4662 46.6885 40.8337 45.0016 40.8337C43.3148 40.8337 41.9473 39.4662 41.9473 37.7793V34.7102C41.9473 33.7003 42.7659 32.8818 43.7756 32.8818Z" fill="#FFCC47"/>
<path d="M14.1378 32.8818H11.6858C10.676 32.8818 9.85742 33.7005 9.85742 34.7102V37.7793C9.85742 39.4662 11.2249 40.8337 12.9118 40.8337C14.5987 40.8337 15.9662 39.4662 15.9662 37.7793V34.7102C15.9662 33.7003 15.1475 32.8818 14.1378 32.8818Z" fill="#FFCC47"/>
<mask id="mask0_328_15834" style="mask-type:alpha" maskUnits="userSpaceOnUse" x="30" y="27" width="35" height="35">
<path d="M62.9626 45.5316L53.8039 54.6903L48.226 60.2672C46.4804 62.0128 43.6502 62.0128 41.9045 60.2672L31.6705 50.0332C29.9249 48.2875 29.9249 45.4574 31.6705 43.7118L43.3455 32.0368L46.4072 28.9762C48.1527 27.2306 50.983 27.2306 52.7286 28.9762L62.9626 39.2102C64.7082 40.9558 64.7082 43.786 62.9626 45.5316Z" fill="#D7F2E5"/>
</mask>
<g mask="url(#mask0_328_15834)">
<path d="M62.9626 45.5316L53.8039 54.6903L48.226 60.2672C46.4804 62.0128 43.6502 62.0128 41.9045 60.2672L31.6705 50.0332C29.9249 48.2875 29.9249 45.4574 31.6705 43.7118L43.3455 32.0368L46.4072 28.9762C48.1527 27.2306 50.983 27.2306 52.7286 28.9762L62.9626 39.2102C64.7082 40.9558 64.7082 43.786 62.9626 45.5316Z" fill="#1BAF68"/>
<g style="mix-blend-mode:screen" opacity="0.8">
<path d="M62.9626 45.5316L53.8039 54.6903L48.226 60.2672C46.4804 62.0128 43.6502 62.0128 41.9045 60.2672L31.6705 50.0332C29.9249 48.2875 29.9249 45.4574 31.6705 43.7118L43.3455 32.0368L46.4072 28.9762C48.1527 27.2306 50.983 27.2306 52.7286 28.9762L62.9626 39.2102C64.7082 40.9558 64.7082 43.786 62.9626 45.5316Z" fill="white"/>
</g>
<path d="M56.011 43.6289C55.7711 43.6289 55.5311 43.5374 55.348 43.3544L48.5812 36.5877C48.2151 36.2214 48.2151 35.6279 48.5812 35.2618C48.9475 34.8958 49.541 34.8958 49.9071 35.2618L56.6739 42.0286C57.04 42.3948 57.04 42.9883 56.6739 43.3544C56.4909 43.5374 56.2509 43.6289 56.011 43.6289Z" fill="#1BAF68"/>
<path d="M51.5697 48.0703C51.3298 48.0703 51.0898 47.9788 50.9067 47.7958L44.1398 41.0291C43.7737 40.6628 43.7737 40.0693 44.1398 39.7032C44.5061 39.3372 45.0996 39.3372 45.4657 39.7032L52.2326 46.47C52.5987 46.8362 52.5987 47.4297 52.2326 47.7958C52.0496 47.9788 51.8096 48.0703 51.5697 48.0703Z" fill="#1BAF68"/>
<path d="M47.1283 52.5128C46.8884 52.5128 46.6484 52.4213 46.4653 52.2383L39.6984 45.4715C39.3323 45.1052 39.3323 44.5117 39.6984 44.1456C40.0647 43.7796 40.6582 43.7796 41.0243 44.1456L47.7912 50.9125C48.1573 51.2787 48.1573 51.8722 47.7912 52.2383C47.608 52.4213 47.368 52.5128 47.1283 52.5128Z" fill="#1BAF68"/>
</g>
</g>
<defs>
<clipPath id="clip0_328_15834">
<rect width="64" height="64" fill="white" transform="translate(0.777344 0.695312)"/>
</clipPath>
</defs>
</svg>
