<svg width="61" height="61" viewBox="0 0 61 61" fill="none" xmlns="http://www.w3.org/2000/svg">
<g filter="url(#filter0_i_267_12383)">
<path fill-rule="evenodd" clip-rule="evenodd" d="M30.2773 57.6953C46.8459 57.6953 60.2773 47.8456 60.2773 35.6953C60.2773 35.4159 60.2702 35.1377 60.2562 34.8608H60.2773V27.8608H58.3193C54.0142 19.5789 43.0827 13.6953 30.2773 13.6953C17.472 13.6953 6.54046 19.5789 2.23538 27.8608H0.277344V34.8608H0.298526C0.284446 35.1377 0.277344 35.4159 0.277344 35.6953C0.277344 47.8456 13.7088 57.6953 30.2773 57.6953Z" fill="#D2AF81"/>
</g>
<g filter="url(#filter1_i_267_12383)">
<path d="M60.2773 27.6953C60.2773 40.9501 46.8459 51.6953 30.2773 51.6953C13.7088 51.6953 0.277344 40.9501 0.277344 27.6953C0.277344 14.4405 13.7088 3.69531 30.2773 3.69531C46.8459 3.69531 60.2773 14.4405 60.2773 27.6953Z" fill="#EBCA9F"/>
</g>
<g clip-path="url(#clip0_267_12383)">
<path d="M38.1523 22.9316H37.2773V19.4316C37.2773 15.5711 34.1378 12.4316 30.2773 12.4316C26.4168 12.4316 23.2773 15.5711 23.2773 19.4316V22.9316H22.4023C20.9557 22.9316 19.7773 24.1088 19.7773 25.5566V37.8066C19.7773 39.2545 20.9557 40.4316 22.4023 40.4316H38.1523C39.599 40.4316 40.7773 39.2545 40.7773 37.8066V25.5566C40.7773 24.1088 39.599 22.9316 38.1523 22.9316ZM25.6107 19.4316C25.6107 16.858 27.7037 14.765 30.2773 14.765C32.851 14.765 34.944 16.858 34.944 19.4316V22.9316H25.6107V19.4316ZM31.444 31.9406V34.5983C31.444 35.2423 30.9225 35.765 30.2773 35.765C29.6322 35.765 29.1107 35.2423 29.1107 34.5983V31.9406C28.4165 31.5358 27.944 30.7915 27.944 29.9316C27.944 28.6448 28.9905 27.5983 30.2773 27.5983C31.5642 27.5983 32.6107 28.6448 32.6107 29.9316C32.6107 30.7915 32.1382 31.5358 31.444 31.9406Z" fill="#D2AF81"/>
</g>
<defs>
<filter id="filter0_i_267_12383" x="0.277344" y="13.6953" width="60" height="44" filterUnits="userSpaceOnUse" color-interpolation-filters="sRGB">
<feFlood flood-opacity="0" result="BackgroundImageFix"/>
<feBlend mode="normal" in="SourceGraphic" in2="BackgroundImageFix" result="shape"/>
<feColorMatrix in="SourceAlpha" type="matrix" values="0 0 0 0 0 0 0 0 0 0 0 0 0 0 0 0 0 0 127 0" result="hardAlpha"/>
<feOffset/>
<feGaussianBlur stdDeviation="0.511558"/>
<feComposite in2="hardAlpha" operator="arithmetic" k2="-1" k3="1"/>
<feColorMatrix type="matrix" values="0 0 0 0 0.97691 0 0 0 0 0.851632 0 0 0 0 0.706424 0 0 0 1 0"/>
<feBlend mode="normal" in2="shape" result="effect1_innerShadow_267_12383"/>
</filter>
<filter id="filter1_i_267_12383" x="0.277344" y="3.69531" width="60" height="48" filterUnits="userSpaceOnUse" color-interpolation-filters="sRGB">
<feFlood flood-opacity="0" result="BackgroundImageFix"/>
<feBlend mode="normal" in="SourceGraphic" in2="BackgroundImageFix" result="shape"/>
<feColorMatrix in="SourceAlpha" type="matrix" values="0 0 0 0 0 0 0 0 0 0 0 0 0 0 0 0 0 0 127 0" result="hardAlpha"/>
<feOffset/>
<feGaussianBlur stdDeviation="0.511558"/>
<feComposite in2="hardAlpha" operator="arithmetic" k2="-1" k3="1"/>
<feColorMatrix type="matrix" values="0 0 0 0 0.97691 0 0 0 0 0.851632 0 0 0 0 0.706424 0 0 0 1 0"/>
<feBlend mode="normal" in2="shape" result="effect1_innerShadow_267_12383"/>
</filter>
<clipPath id="clip0_267_12383">
<rect width="28" height="28" fill="white" transform="translate(16.2773 12.4316)"/>
</clipPath>
</defs>
</svg>
