<svg width="65" height="65" viewBox="0 0 65 65" fill="none" xmlns="http://www.w3.org/2000/svg">
<g clip-path="url(#clip0_328_15833)">
<mask id="mask0_328_15833" style="mask-type:alpha" maskUnits="userSpaceOnUse" x="13" y="24" width="39" height="20">
<path d="M49.1864 24.1994L15.5144 24.1689L13.6758 36.0331L32.4726 43.0779L51.2693 36.0331L49.1864 24.1994Z" fill="#FFCC47"/>
</mask>
<g mask="url(#mask0_328_15833)">
<path d="M49.1864 24.1994L15.5144 24.1689L13.6758 36.0331L32.4726 43.0779L51.2693 36.0331L49.1864 24.1994Z" fill="#FFCC47"/>
<g style="mix-blend-mode:multiply">
<path d="M22.5707 67.9237L16.5314 20.2129L5.64453 67.9237H22.5707Z" fill="#FFCC47"/>
</g>
</g>
<mask id="mask1_328_15833" style="mask-type:alpha" maskUnits="userSpaceOnUse" x="9" y="36" width="47" height="29">
<path d="M13.6729 36.0303L9.68131 61.7868C9.44295 63.325 10.8122 64.6939 12.589 64.6939H52.892C54.6902 64.6939 56.0654 63.2938 55.7922 61.7412L51.2664 36.0304H13.6729V36.0303Z" fill="#17A05F"/>
</mask>
<g mask="url(#mask1_328_15833)">
<path d="M13.6729 36.0303L9.68131 61.7868C9.44295 63.325 10.8122 64.6939 12.589 64.6939H52.892C54.6902 64.6939 56.0654 63.2938 55.7922 61.7412L51.2664 36.0304H13.6729V36.0303Z" fill="#1BAF68"/>
<g style="mix-blend-mode:multiply">
<path d="M22.5688 67.9217L16.5295 20.2109L5.64258 67.9217H22.5688Z" fill="#1BAF68"/>
</g>
</g>
<path d="M58.4858 27.3396H7.05831C5.67457 27.3396 4.55273 26.3596 4.55273 25.1508C4.55273 23.9419 5.67457 22.9619 7.05831 22.9619H58.4858C59.8696 22.9619 60.9914 23.9419 60.9914 25.1508C60.9914 26.3596 59.8696 27.3396 58.4858 27.3396Z" fill="#1BAF68"/>
<g style="mix-blend-mode:multiply" opacity="0.5">
<path d="M58.4858 27.3396H7.05831C5.67457 27.3396 4.55273 26.3596 4.55273 25.1508C4.55273 23.9419 5.67457 22.9619 7.05831 22.9619H58.4858C59.8696 22.9619 60.9914 23.9419 60.9914 25.1508C60.9914 26.3596 59.8696 27.3396 58.4858 27.3396Z" fill="#1BAF68"/>
</g>
<g style="mix-blend-mode:multiply">
<path fill-rule="evenodd" clip-rule="evenodd" d="M31.3583 48.4793C31.801 48.2745 32.3259 48.4673 32.5307 48.91C32.6679 49.2065 32.9833 49.6915 33.4425 50.0814C33.8932 50.4641 34.4285 50.713 35.0432 50.6837C36.3382 50.6219 36.9034 49.6579 37.0182 49.2306C37.1447 48.7595 37.6292 48.4801 38.1003 48.6066C38.5714 48.7331 38.8507 49.2176 38.7242 49.6887C38.4811 50.5939 37.4311 52.3382 35.1273 52.4481C33.9426 52.5047 32.9844 52.0098 32.2991 51.4279C31.6223 50.8532 31.1593 50.1527 30.9276 49.6518C30.7227 49.2091 30.9156 48.6841 31.3583 48.4793Z" fill="#1BAF68"/>
</g>
<ellipse cx="28.9723" cy="42.7292" rx="4.18323" ry="4.47134" fill="white"/>
<path fill-rule="evenodd" clip-rule="evenodd" d="M31.11 38.8849C30.4844 38.4866 29.7533 38.2578 28.9723 38.2578C26.662 38.2578 24.7891 40.2597 24.7891 42.7292C24.7891 44.7529 26.0469 46.4626 27.7725 47.0139L31.11 38.8849Z" fill="#1BAF68"/>
<g style="mix-blend-mode:multiply">
<path fill-rule="evenodd" clip-rule="evenodd" d="M31.11 38.8849C30.4844 38.4866 29.7533 38.2578 28.9723 38.2578C26.662 38.2578 24.7891 40.2597 24.7891 42.7292C24.7891 44.7529 26.0469 46.4626 27.7725 47.0139L31.11 38.8849Z" fill="#1BAF68"/>
</g>
<ellipse cx="37.7583" cy="41.7209" rx="3.96535" ry="4.23846" fill="white"/>
<path fill-rule="evenodd" clip-rule="evenodd" d="M39.9978 38.2226C39.3606 37.7556 38.5893 37.4824 37.7583 37.4824C35.5683 37.4824 33.793 39.38 33.793 41.7209C33.793 43.6891 35.0481 45.344 36.7495 45.821L39.9978 38.2226Z" fill="#1BAF68"/>
<g style="mix-blend-mode:multiply">
<path fill-rule="evenodd" clip-rule="evenodd" d="M39.9981 38.2228C39.3608 37.7557 38.5894 37.4824 37.7583 37.4824C35.5683 37.4824 33.793 39.38 33.793 41.7209C33.793 43.6892 35.0483 45.3442 36.7499 45.8211L39.9981 38.2228Z" fill="#1BAF68"/>
</g>
<path d="M20.686 15.7396C20.3956 15.8567 20.0606 15.8631 19.7497 15.7309L16.6122 14.3977C15.9901 14.1333 15.7 13.4147 15.9644 12.7926C16.2288 12.1705 16.9474 11.8804 17.5695 12.1448L20.7069 13.478C21.7141 13.9057 21.6883 15.3355 20.686 15.7396Z" fill="#FFCC47"/>
<path d="M44.2612 15.7396C44.5517 15.8567 44.8867 15.8631 45.1976 15.7309L48.3351 14.3977C48.9572 14.1333 49.2472 13.4147 48.9829 12.7926C48.7185 12.1705 47.9999 11.8804 47.3778 12.1448L44.2403 13.478C43.2332 13.9057 43.259 15.3355 44.2612 15.7396Z" fill="#FFCC47"/>
<path d="M32.7416 4.80867C32.0656 4.80867 31.5176 4.41046 31.5176 3.9193V1.58469C31.5176 1.09353 32.0656 0.695312 32.7416 0.695312C33.4175 0.695312 33.9656 1.09353 33.9656 1.58469V3.9193C33.9656 4.41046 33.4175 4.80867 32.7416 4.80867Z" fill="#FFCC47"/>
<path d="M31.6953 10.1617C32.0802 9.6336 32.868 9.6336 33.2529 10.1617L34.5358 11.9219C34.6551 12.0856 34.8229 12.2075 35.0154 12.2704L37.0859 12.9466C37.7071 13.1494 37.9506 13.8987 37.5673 14.4279L36.2896 16.192C36.1708 16.356 36.1067 16.5533 36.1064 16.7558L36.1032 18.9339C36.1022 19.5874 35.4649 20.0505 34.8431 19.8495L32.7705 19.1795C32.5778 19.1172 32.3704 19.1172 32.1777 19.1795L30.1052 19.8495C29.4834 20.0505 28.846 19.5874 28.845 18.9339L28.8418 16.7558C28.8415 16.5533 28.7774 16.356 28.6586 16.192L27.381 14.4279C26.9976 13.8987 27.2411 13.1494 27.8623 12.9466L29.9328 12.2704C30.1253 12.2075 30.2931 12.0856 30.4124 11.9219L31.6953 10.1617Z" fill="#FFCC47"/>
</g>
<defs>
<clipPath id="clip0_328_15833">
<rect width="64" height="64" fill="white" transform="translate(0.777344 0.695312)"/>
</clipPath>
</defs>
</svg>
