<svg width="286" height="276" viewBox="0 0 286 276" fill="none" xmlns="http://www.w3.org/2000/svg">
<path d="M121.123 231.733H65.5925C37.0987 231.733 14 208.634 14 180.14V165.096C14 144.911 30.3631 128.548 50.548 128.548H54.3288C72.4256 128.548 87.0959 143.218 87.0959 161.315V176.202C87.0959 186.077 79.0907 194.082 69.2158 194.082V194.082C59.3408 194.082 51.3356 186.077 51.3356 176.202V169.979" stroke="#40AD5B" stroke-width="27.726" stroke-linecap="round"/>
<rect x="163.699" y="229.096" width="46" height="124.452" rx="23" transform="rotate(-105 163.699 229.096)" fill="#40AD5B"/>
<path d="M219.697 214.091C207.427 217.379 194.815 210.097 191.528 197.828C188.24 185.558 195.521 172.946 207.791 169.659L248.876 158.65L260.782 203.082L219.697 214.091Z" fill="#EDCA12"/>
<rect x="168.227" y="181.795" width="45.6849" height="94.2055" rx="22.8425" fill="#63BE79"/>
<rect x="117.973" y="181.795" width="45.6849" height="94.2055" rx="22.8425" fill="#63BE79"/>
<path d="M83.9453 108.698C83.9453 65.3703 119.069 30.2461 162.397 30.2461C205.725 30.2461 240.849 65.3703 240.849 108.698V192.506C240.849 221.218 217.574 244.493 188.863 244.493H135.932C107.22 244.493 83.9453 221.218 83.9453 192.506V108.698Z" fill="#63BE79"/>
<mask id="mask0_8281_37225" style="mask-type:alpha" maskUnits="userSpaceOnUse" x="237" y="150" width="42" height="64">
<path d="M259.086 208.231C257.509 212.191 253.02 214.123 249.06 212.546L242.037 209.748C238.076 208.171 236.145 203.682 237.722 199.722L257.478 150.119L278.842 158.628L259.086 208.231Z" fill="#53D35F"/>
</mask>
<g mask="url(#mask0_8281_37225)">
<path d="M259.086 208.231C257.509 212.191 253.02 214.123 249.06 212.546L242.037 209.748C238.076 208.171 236.145 203.682 237.722 199.722L257.478 150.119L278.842 158.628L259.086 208.231Z" fill="#D16B66"/>
<path d="M262.34 208.944C260.763 212.904 256.274 214.836 252.314 213.258L245.29 210.461C241.33 208.884 239.399 204.395 240.976 200.435L260.732 150.832L282.096 159.341L262.34 208.944Z" fill="#EE8768"/>
</g>
<mask id="mask1_8281_37225" style="mask-type:alpha" maskUnits="userSpaceOnUse" x="257" y="138" width="22" height="21">
<path d="M274.62 138.158L278.844 158.629L257.48 150.12L274.62 138.158Z" fill="#FFDFA5"/>
</mask>
<g mask="url(#mask1_8281_37225)">
<path d="M274.62 138.158L278.844 158.629L257.48 150.12L274.62 138.158Z" fill="#F1CA84"/>
<path d="M274.62 138.158L278.844 158.629L260.532 151.336L274.62 138.158Z" fill="#FFDFA5"/>
<path fill-rule="evenodd" clip-rule="evenodd" d="M275.758 143.652L274.625 138.163L270.029 141.37L275.758 143.652Z" fill="#B98E53"/>
</g>
<path d="M83.9453 163.521H240.849V192.507C240.849 221.218 217.574 244.493 188.863 244.493H135.932C107.22 244.493 83.9453 221.218 83.9453 192.507V163.521Z" fill="#FFDE33"/>
<path d="M83.9453 207H240.849C240.849 227.707 224.063 244.493 203.356 244.493H121.438C100.732 244.493 83.9453 227.707 83.9453 207Z" fill="#3190E6"/>
<path d="M137.191 163.521H152.945V223.699H137.191V163.521Z" fill="#3190E6"/>
<path d="M219.426 163.521H235.179V223.699H219.426V163.521Z" fill="#3190E6"/>
<path d="M144.948 58.7686C154.435 53.0662 157.667 40.5672 150.378 32.2377C146.147 27.4039 141.761 23.3377 137.47 20.2713C133.179 17.2049 129.066 15.1983 125.368 14.366C121.669 13.5338 118.456 13.8922 115.913 15.4209C113.37 16.9496 111.546 19.6185 110.545 23.2754C109.545 26.9322 109.388 31.5053 110.082 36.7336C110.777 41.9619 112.31 47.743 114.594 53.7468C118.529 64.0923 131.084 67.102 140.571 61.3996L142.759 60.0841L144.948 58.7686Z" fill="#63BE79"/>
<path d="M119.935 77.2717C128.135 69.8366 128.88 56.9479 120.113 50.1915C115.025 46.2706 109.933 43.1329 105.128 40.9575C100.323 38.7822 95.8998 37.6118 92.1099 37.5132C88.3199 37.4146 85.2379 38.3897 83.0397 40.3829C80.8415 42.376 79.5702 45.3482 79.2985 49.1297C79.0267 52.9112 79.7598 57.4279 81.4558 62.422C83.1518 67.4161 85.7776 72.7897 89.1832 78.2362C95.0517 87.6213 107.952 88.1373 116.152 80.7022L118.043 78.987L119.935 77.2717Z" fill="#63BE79"/>
<path d="M123.28 98.9615C126.283 88.3078 120.074 76.9888 109.057 75.9164C102.664 75.2941 96.6828 75.3375 91.4561 76.0441C86.2295 76.7508 81.8592 78.1069 78.5949 80.035C75.3305 81.9631 73.236 84.4254 72.431 87.2814C71.626 90.1373 72.1262 93.331 73.903 96.6801C75.6798 100.029 78.6985 103.468 82.7867 106.8C86.8749 110.133 91.9525 113.293 97.7297 116.101C107.685 120.94 118.891 114.531 121.894 103.877L122.587 101.419L123.28 98.9615Z" fill="#63BE79"/>
<circle cx="155.623" cy="94.993" r="30.4041" fill="#F3F7FE"/>
<ellipse cx="143.179" cy="127.76" rx="16.6986" ry="9.60959" fill="#FF8A8A"/>
<circle cx="161.135" cy="97.0412" r="16.0685" fill="#442005"/>
<circle cx="167.122" cy="91.6845" r="3.46575" fill="#F3F7FE"/>
<circle cx="221.787" cy="94.6776" r="30.4041" fill="#F3F7FE"/>
<circle cx="225.096" cy="96.7257" r="16.0685" fill="#442005"/>
<circle cx="231.083" cy="91.3691" r="3.46575" fill="#F3F7FE"/>
<ellipse cx="238.644" cy="127.445" rx="16.6986" ry="9.60959" fill="#FF8A8A"/>
<path d="M172.491 58.1301C184.839 58.1301 195.113 48.0377 192.93 35.8847C191.663 28.832 189.806 22.4238 187.466 17.0259C185.125 11.628 182.347 7.34621 179.289 4.42489C176.231 1.50358 172.953 -3.33682e-07 169.643 0C166.333 3.33682e-07 163.055 1.50358 159.997 4.42489C156.939 7.34621 154.161 11.628 151.82 17.0259C149.479 22.4238 147.623 28.832 146.356 35.8847C144.173 48.0377 154.447 58.1301 166.795 58.1301H169.643H172.491Z" fill="#6DD887"/>
<rect x="107.02" y="212.688" width="46" height="89.4795" rx="23" transform="rotate(-135 107.02 212.688)" fill="#6DD887"/>
<path d="M123.283 196.425C114.301 205.407 99.7381 205.407 90.7561 196.425C81.774 187.443 81.774 172.88 90.7561 163.898L120.832 133.822L153.359 166.349L123.283 196.425Z" fill="#FFDE33"/>
<circle cx="155.466" cy="94.8361" r="35.6027" fill="white" fill-opacity="0.42"/>
<circle cx="155.466" cy="94.8361" r="35.6027" fill="url(#paint0_linear_8281_37225)" fill-opacity="0.6"/>
<circle cx="155.466" cy="94.8361" r="35.6027" stroke="#4D3519" stroke-width="3.78082"/>
<circle cx="230.138" cy="95.7817" r="33.7123" fill="white" fill-opacity="0.42"/>
<circle cx="230.138" cy="95.7817" r="33.7123" fill="url(#paint1_linear_8281_37225)" fill-opacity="0.6"/>
<circle cx="230.138" cy="95.7817" r="33.7123" stroke="#4D3519" stroke-width="3.78082"/>
<path d="M191.227 94.9941H196.268" stroke="#4D3519" stroke-width="3.78082"/>
<path d="M172.766 131.315C173.561 128.993 175.922 127.589 178.341 128.001L182.881 128.773C189.704 129.933 196.673 129.94 203.498 128.795L208.691 127.923C210.942 127.545 213.177 128.682 214.197 130.725C215.224 132.783 215.241 135.2 214.243 137.273L213.922 137.94C212.998 139.859 211.358 141.34 209.354 142.064L207.948 142.571C198.413 146.013 187.97 145.991 178.449 142.509L177.769 142.26C175.48 141.423 173.699 139.585 172.935 137.27L172.737 136.67C172.163 134.93 172.173 133.049 172.766 131.315Z" fill="#242424"/>
<mask id="mask2_8281_37225" style="mask-type:alpha" maskUnits="userSpaceOnUse" x="172" y="127" width="43" height="19">
<path d="M172.766 131.315C173.561 128.993 175.922 127.589 178.341 128.001L182.881 128.773C189.704 129.933 196.673 129.94 203.498 128.795L208.691 127.923C210.942 127.545 213.177 128.682 214.197 130.725C215.224 132.783 215.241 135.2 214.243 137.273L213.922 137.94C212.998 139.859 211.358 141.34 209.354 142.064L207.948 142.571C198.413 146.013 187.97 145.991 178.449 142.509L177.769 142.26C175.48 141.423 173.699 139.585 172.935 137.27L172.737 136.67C172.163 134.93 172.173 133.049 172.766 131.315Z" fill="#E8E8E8"/>
</mask>
<g mask="url(#mask2_8281_37225)">
<circle cx="193.715" cy="153.494" r="16.9808" fill="#FF8761"/>
<rect x="182.426" y="123.95" width="8.0487" height="10.2081" rx="4.02435" fill="white"/>
<rect x="195.773" y="122.772" width="8.63763" height="11.1897" rx="4.31881" fill="white"/>
</g>
<defs>
<linearGradient id="paint0_linear_8281_37225" x1="122.384" y1="80.9731" x2="183.665" y2="119.727" gradientUnits="userSpaceOnUse">
<stop offset="0.196162" stop-color="white" stop-opacity="0"/>
<stop offset="0.201132" stop-color="white"/>
<stop offset="0.425612" stop-color="white"/>
<stop offset="0.432326" stop-color="white" stop-opacity="0"/>
<stop offset="0.703685" stop-color="white" stop-opacity="0"/>
<stop offset="0.708335" stop-color="white"/>
<stop offset="0.877735" stop-color="white"/>
<stop offset="0.881091" stop-color="white" stop-opacity="0"/>
</linearGradient>
<linearGradient id="paint1_linear_8281_37225" x1="198.812" y1="82.6547" x2="256.839" y2="119.35" gradientUnits="userSpaceOnUse">
<stop offset="0.196162" stop-color="white" stop-opacity="0"/>
<stop offset="0.201132" stop-color="white"/>
<stop offset="0.425612" stop-color="white"/>
<stop offset="0.432326" stop-color="white" stop-opacity="0"/>
<stop offset="0.703685" stop-color="white" stop-opacity="0"/>
<stop offset="0.708335" stop-color="white"/>
<stop offset="0.877735" stop-color="white"/>
<stop offset="0.881091" stop-color="white" stop-opacity="0"/>
</linearGradient>
</defs>
</svg>
