<svg width="83" height="83" viewBox="0 0 83 83" fill="none" xmlns="http://www.w3.org/2000/svg">
<g style="mix-blend-mode:soft-light" opacity="0.5">
<ellipse cx="46.1113" cy="46.6952" rx="36" ry="35.9999" stroke="white" stroke-width="20"/>
</g>
<g filter="url(#filter0_i_8387_32978)">
<rect x="10.1113" y="10.6953" width="72" height="71.9998" rx="35.9999" fill="#19C472"/>
<path d="M33.6738 34.0823V45.2914V49.505V54.9322V59.3095C33.6738 59.8686 34.1238 60.3322 34.6966 60.3322C35.2556 60.3322 35.7193 59.8686 35.7193 59.3095V54.9322V50.5277H43.5193C44.2693 50.5277 44.8829 49.9141 44.8829 49.1641V48.4823V35.105V34.4232C44.8829 33.6732 44.2693 33.0596 43.5193 33.0596H34.6966C34.1238 33.0596 33.6738 33.5232 33.6738 34.0823Z" fill="white"/>
<path d="M53.6368 45.7818C53.2005 45.4 52.955 44.9227 52.955 44.4182C52.955 43.9137 53.2005 43.4364 53.6368 43.0546L57.7414 39.55C58.4777 38.9227 58.7368 37.9818 58.4096 37.1091C58.055 36.1409 57.1005 35.5137 55.9823 35.5137H48.2914C47.5414 35.5137 46.9277 36.1273 46.9277 36.8773V37.5591V51.2773V51.9591C46.9277 52.7091 47.5414 53.3227 48.2914 53.3227H55.9823C57.1005 53.3227 58.055 52.6955 58.4096 51.7273C58.505 51.4818 58.5459 51.2227 58.5459 50.9636C58.5459 50.3364 58.2732 49.7364 57.7414 49.2864L53.6368 45.7818Z" fill="white"/>
<g style="mix-blend-mode:screen" opacity="0.49">
<path d="M46.1252 18.5052C47.9151 18.464 49.7661 18.5835 51.6462 18.8793C60.1808 20.2224 67.0253 24.8387 69.8061 30.4302" stroke="white" stroke-width="5.61038" stroke-linecap="round"/>
</g>
</g>
<defs>
<filter id="filter0_i_8387_32978" x="10.1113" y="10.6953" width="72" height="72" filterUnits="userSpaceOnUse" color-interpolation-filters="sRGB">
<feFlood flood-opacity="0" result="BackgroundImageFix"/>
<feBlend mode="normal" in="SourceGraphic" in2="BackgroundImageFix" result="shape"/>
<feColorMatrix in="SourceAlpha" type="matrix" values="0 0 0 0 0 0 0 0 0 0 0 0 0 0 0 0 0 0 127 0" result="hardAlpha"/>
<feOffset dy="-5.72727"/>
<feComposite in2="hardAlpha" operator="arithmetic" k2="-1" k3="1"/>
<feColorMatrix type="matrix" values="0 0 0 0 0.0908667 0 0 0 0 0.152049 0 0 0 0 0.0896181 0 0 0 0.2 0"/>
<feBlend mode="normal" in2="shape" result="effect1_innerShadow_8387_32978"/>
</filter>
</defs>
</svg>
