<svg width="113" height="122" viewBox="0 0 113 122" fill="none" xmlns="http://www.w3.org/2000/svg">
<rect x="86.8516" y="56.7588" width="20.3109" height="54.9508" rx="10.1555" fill="#40AD5B"/>
<path d="M86.8516 82.3557C86.8516 76.7469 91.3983 72.2002 97.007 72.2002C102.616 72.2002 107.163 76.747 107.163 82.3557V101.136H86.8516V82.3557Z" fill="#EDCA12"/>
<path d="M64.8203 25.9483C69.0091 23.4304 70.4365 17.9116 67.2178 14.2338C65.3499 12.0994 63.4133 10.304 61.5185 8.95007C59.6238 7.59611 57.808 6.71011 56.1748 6.34264C54.5417 5.97518 53.1231 6.13345 52.0002 6.80842C50.8773 7.48339 50.0719 8.66184 49.6302 10.2765C49.1884 11.8911 49.1189 13.9104 49.4256 16.2189C49.7323 18.5274 50.4092 21.08 51.4176 23.7309C53.1553 28.2989 58.6987 29.6278 62.8876 27.11L63.8539 26.5291L64.8203 25.9483Z" fill="#63BE79"/>
<path d="M53.7755 34.1186C57.3961 30.8357 57.7252 25.1448 53.854 22.1616C51.6074 20.4303 49.3592 19.0449 47.2377 18.0844C45.1162 17.1239 43.163 16.6071 41.4895 16.5636C39.8161 16.52 38.4553 16.9506 37.4847 17.8306C36.5141 18.7107 35.9528 20.023 35.8328 21.6927C35.7128 23.3624 36.0365 25.3567 36.7853 27.5618C37.5342 29.7669 38.6936 32.1396 40.1973 34.5445C42.7885 38.6884 48.4844 38.9162 52.1049 35.6333L52.9402 34.876L53.7755 34.1186Z" fill="#63BE79"/>
<path d="M55.2525 43.6953C56.5784 38.9912 53.8367 33.9934 48.9724 33.5199C46.1494 33.2451 43.5087 33.2643 41.2009 33.5763C38.8931 33.8883 36.9634 34.4871 35.5221 35.3384C34.0808 36.1897 33.156 37.277 32.8005 38.538C32.4451 39.799 32.6659 41.2092 33.4504 42.6879C34.235 44.1667 35.5679 45.6851 37.373 47.1565C39.1781 48.6278 41.4201 50.0233 43.9709 51.2632C48.3665 53.3999 53.3147 50.5697 54.6407 45.8656L54.9466 44.7805L55.2525 43.6953Z" fill="#63BE79"/>
<path d="M54.2994 102.319H29.7803C17.1991 102.319 7 92.1202 7 79.539V72.8962C7 63.9838 14.225 56.7588 23.1375 56.7588H24.8068C32.7973 56.7588 39.2749 63.2364 39.2749 71.2269V77.8001C39.2749 82.1603 35.7403 85.6949 31.3801 85.6949V85.6949C27.0199 85.6949 23.4852 82.1603 23.4852 77.8001V75.0525" stroke="#40AD5B" stroke-width="12.2422" stroke-linecap="round"/>
<path d="M37.8828 47.967C37.8828 28.836 53.3916 13.3271 72.5227 13.3271C91.6538 13.3271 107.163 28.836 107.163 47.967V84.9719C107.163 97.6491 96.8857 107.926 84.2084 107.926H60.837C48.1597 107.926 37.8828 97.6491 37.8828 84.9719V47.967Z" fill="#63BE79"/>
<rect x="75.0977" y="80.2695" width="20.1718" height="41.5957" rx="10.0859" fill="#63BE79"/>
<rect x="52.9062" y="80.2695" width="20.1718" height="41.5957" rx="10.0859" fill="#63BE79"/>
<path d="M37.8828 72.2012H107.163V84.9998C107.163 97.6771 96.8857 107.954 84.2084 107.954H60.837C48.1597 107.954 37.8828 97.6771 37.8828 84.9998V72.2012Z" fill="#FFDE33"/>
<path d="M37.8828 91.3994H107.163C107.163 100.542 99.7508 107.954 90.6078 107.954H54.4376C45.2947 107.954 37.8828 100.542 37.8828 91.3994Z" fill="#3190E6"/>
<path d="M61.3945 72.2012H68.3503V98.7723H61.3945V72.2012Z" fill="#3190E6"/>
<path d="M97.7031 72.2012H104.659V98.7723H97.7031V72.2012Z" fill="#3190E6"/>
<rect x="37.8828" y="72.2012" width="20.3109" height="39.5089" rx="10.1555" fill="#63BE79"/>
<path d="M37.8828 82.3566C37.8828 76.7479 42.4296 72.2012 48.0383 72.2012C53.647 72.2012 58.1938 76.7479 58.1938 82.3566V101.137H37.8828V82.3566Z" fill="#FFDE33"/>
<path d="M76.9808 25.6669C82.4327 25.6669 86.9689 21.2107 86.0051 15.8446C85.4458 12.7306 84.6261 9.90105 83.5926 7.51766C82.5592 5.13427 81.3323 3.24366 79.982 1.95378C78.6318 0.663894 77.1845 -1.47335e-07 75.723 0C74.2615 1.47335e-07 72.8143 0.663894 71.464 1.95378C70.1138 3.24366 68.8869 5.13427 67.8534 7.51766C66.82 9.90106 66.0002 12.7306 65.4409 15.8446C64.4771 21.2107 69.0134 25.6669 74.4653 25.6669H75.723H76.9808Z" fill="#6DD887"/>
<circle cx="69.5341" cy="41.9442" r="13.4247" fill="#F3F7FE"/>
<circle cx="74.335" cy="49.8613" r="1.53028" fill="#442005"/>
<path d="M82.9588 42.0143C82.9588 40.1508 82.6115 38.3056 81.9369 36.5841C81.2622 34.8625 80.2734 33.2982 79.0268 31.9805C77.7802 30.6629 76.3002 29.6177 74.6715 28.9046C73.0427 28.1915 71.297 27.8244 69.5341 27.8244C67.7711 27.8244 66.0254 28.1915 64.3967 28.9046C62.7679 29.6177 61.288 30.6629 60.0414 31.9805C58.7948 33.2982 57.8059 34.8625 57.1313 36.5841C56.4566 38.3056 56.1094 40.1508 56.1094 42.0143L69.5341 42.0143H82.9588Z" fill="#73D18A"/>
<circle cx="60.006" cy="57.1778" r="1.25204" fill="#C1F9A6"/>
<circle cx="62.7183" cy="59.8901" r="0.765138" fill="#C1F9A6"/>
<circle cx="66.9591" cy="57.1778" r="1.25204" fill="#C1F9A6"/>
<circle cx="98.6083" cy="41.9433" r="13.4247" fill="#F3F7FE"/>
<circle cx="101.737" cy="49.8604" r="1.53028" fill="#442005"/>
<path d="M111.755 42.0124C111.755 40.1702 111.411 38.3459 110.743 36.6439C110.076 34.9419 109.097 33.3954 107.863 32.0927C106.63 30.79 105.165 29.7567 103.553 29.0517C101.941 28.3467 100.214 27.9838 98.4692 27.9838C96.7245 27.9838 94.9969 28.3467 93.385 29.0517C91.7731 29.7567 90.3085 30.79 89.0748 32.0927C87.8412 33.3954 86.8626 34.9419 86.1949 36.6439C85.5272 38.346 85.1836 40.1702 85.1836 42.0124L98.4692 42.0124H111.755Z" fill="#73D18A"/>
<path d="M90.75 62.0459L90.6307 61.89V61.89C88.4024 58.9785 84.0462 58.8925 81.7047 61.7139L81.4292 62.0459" stroke="#186F2E" stroke-width="2.22586" stroke-linecap="round"/>
</svg>
