<svg width="65" height="65" viewBox="0 0 65 65" fill="none" xmlns="http://www.w3.org/2000/svg">
<g clip-path="url(#clip0_534_23566)">
<path fill-rule="evenodd" clip-rule="evenodd" d="M32.1679 7.34099C18.2633 7.34099 6.99138 18.6129 6.99138 32.5175C6.99138 46.422 18.2633 57.6939 32.1679 57.6939C46.0724 57.6939 57.3443 46.422 57.3443 32.5175C57.3443 18.6129 46.0724 7.34099 32.1679 7.34099ZM3.69727 32.5175C3.69727 16.7936 16.444 4.04688 32.1679 4.04688C47.8917 4.04688 60.6384 16.7936 60.6384 32.5175C60.6384 48.2413 47.8917 60.9881 32.1679 60.9881C16.444 60.9881 3.69727 48.2413 3.69727 32.5175Z" fill="#FFAD4E"/>
<path d="M43.5305 19.3327L32.168 31.2827V1.55775C33.7555 1.54525 35.2055 2.44525 35.9055 3.87025L42.568 17.3702C42.5805 17.3952 42.593 17.4202 42.6055 17.4577L43.5305 19.3327Z" fill="#FFBEF9"/>
<path d="M20.8066 19.3327L32.1691 31.2827V1.55775C30.5816 1.54525 29.1316 2.44525 28.4316 3.87025L21.7691 17.3702C21.7566 17.3952 21.7441 17.4202 21.7316 17.4577L20.8066 19.3327Z" fill="#FF67E4"/>
<path d="M63.7805 24.182L32.168 31.282L43.5305 19.332L45.593 19.632C45.618 19.632 45.668 19.6445 45.693 19.6445L60.6055 21.8195C61.993 22.0195 63.193 22.907 63.7805 24.182Z" fill="#FFA5F6"/>
<path d="M62.9055 28.9201L52.1305 39.4326L50.568 40.9576L32.168 31.2826L63.7805 24.1826C64.5305 25.7826 64.1805 27.6826 62.9055 28.9201Z" fill="#FF67E4"/>
<path d="M52.0305 61.8582L32.168 31.2832L50.5555 40.9582L50.9305 43.1082L53.468 57.9582C53.7305 59.4207 53.1805 60.9207 52.0305 61.8582Z" fill="#FFA5F6"/>
<path d="M52.0305 61.8582C50.743 62.9457 48.918 63.1332 47.443 62.3457L34.118 55.3332C34.093 55.3207 34.0555 55.3082 34.018 55.2957L32.168 54.3207V31.2832L52.0305 61.8582Z" fill="#FF67E4"/>
<path d="M32.1691 31.2832V54.3207L30.3191 55.2957C30.2941 55.3082 30.2441 55.3207 30.2191 55.3332L16.8941 62.3457C15.4066 63.1457 13.5941 62.9457 12.3066 61.8582L32.1691 31.2832Z" fill="#FFBEF9"/>
<path d="M32.1683 31.2832L12.3183 61.8582C11.1683 60.9207 10.6058 59.4207 10.8683 57.9582L13.4058 43.1082L13.7808 40.9582L32.1683 31.2832Z" fill="#FFA5F6"/>
<path d="M32.1685 31.2826L13.781 40.9576L12.2185 39.4326L1.44349 28.9201C0.168489 27.6951 -0.181511 25.7951 0.568489 24.1826L32.1685 31.2826Z" fill="#FF67E4"/>
<path d="M32.1691 31.2832L0.556641 24.1832C1.14414 22.9082 2.34414 22.0207 3.73164 21.8207L18.6316 19.6582C18.6566 19.6582 18.7066 19.6457 18.7316 19.6457L20.7941 19.3457L32.1691 31.2832Z" fill="#FFA5F6"/>
</g>
<defs>
<clipPath id="clip0_534_23566">
<rect width="64" height="64" fill="white" transform="translate(0.167969 0.195312)"/>
</clipPath>
</defs>
</svg>
