<svg width="64" height="64" viewBox="0 0 64 64" fill="none" xmlns="http://www.w3.org/2000/svg">
<g clip-path="url(#clip0_290_11992)">
<path d="M44.4979 47.9814C43.7243 47.9814 43.0073 47.4838 42.7636 46.7066L39.9879 38.0996C39.6878 37.1414 40.2211 36.1216 41.1792 35.8214C42.1377 35.5219 43.1572 36.0547 43.4574 37.0126L46.2331 45.6197C46.5332 46.5779 45.9999 47.5977 45.0418 47.8979C44.861 47.9544 44.6778 47.9814 44.4979 47.9814Z" fill="#1BAF68"/>
<g style="mix-blend-mode:multiply" opacity="0.5">
<path d="M44.4999 47.9805C43.7262 47.9805 43.0092 47.4828 42.7656 46.7057L39.9899 38.0986C39.6897 37.1404 40.2231 36.1206 41.1811 35.8204C42.1397 35.5209 43.1591 36.0537 43.4593 37.0117L46.235 45.6187C46.5352 46.5769 46.0018 47.5967 45.0438 47.8969C44.863 47.9534 44.6797 47.9805 44.4999 47.9805Z" fill="#1BAF68"/>
</g>
<path fill-rule="evenodd" clip-rule="evenodd" d="M45.9235 57.3477C49.4484 57.3477 52.3059 54.4901 52.3059 50.9652C52.3059 47.4403 49.4484 44.5828 45.9235 44.5828C42.3985 44.5828 39.541 47.4403 39.541 50.9652C39.541 54.4901 42.3985 57.3477 45.9235 57.3477ZM45.9227 53.3117C47.2185 53.3117 48.2689 52.2612 48.2689 50.9655C48.2689 49.6699 47.2185 48.6194 45.9227 48.6194C44.6271 48.6194 43.5767 49.6699 43.5767 50.9655C43.5767 52.2612 44.6271 53.3117 45.9227 53.3117Z" fill="#1BAF68"/>
<path d="M10.0937 51.1605C10.0269 51.1605 9.95952 51.1569 9.89153 51.1494C8.8937 51.0389 8.17427 50.1405 8.28462 49.1427L8.97334 41.9587C9.08383 40.9607 9.98161 40.2424 10.9801 40.3517C11.9779 40.4621 12.6973 41.3607 12.5869 42.3584L11.8983 49.5425C11.7954 50.4725 11.008 51.1605 10.0937 51.1605Z" fill="#1BAF68"/>
<g style="mix-blend-mode:color-burn" opacity="0.5">
<path d="M10.0937 51.1605C10.0269 51.1605 9.95952 51.1569 9.89153 51.1494C8.8937 51.0389 8.17427 50.1405 8.28462 49.1427L8.97334 41.9587C9.08383 40.9607 9.98161 40.2424 10.9801 40.3517C11.9779 40.4621 12.6973 41.3607 12.5869 42.3584L11.8983 49.5425C11.7954 50.4725 11.008 51.1605 10.0937 51.1605Z" fill="#1BAF68"/>
</g>
<path fill-rule="evenodd" clip-rule="evenodd" d="M9.58632 57.3467C12.0189 57.3467 13.991 55.3746 13.991 52.942C13.991 50.5094 12.0189 48.5373 9.58632 48.5373C7.15374 48.5373 5.18164 50.5094 5.18164 52.942C5.18164 55.3746 7.15374 57.3467 9.58632 57.3467ZM9.58676 54.5607C10.4809 54.5607 11.2059 53.8357 11.2059 52.9416C11.2059 52.0474 10.4809 51.3224 9.58676 51.3224C8.69259 51.3224 7.96762 52.0474 7.96762 52.9416C7.96762 53.8357 8.69259 54.5607 9.58676 54.5607Z" fill="#1BAF68"/>
<path d="M54.3807 23.5438L48.5944 11.4841C47.8 9.78796 48.5311 7.76899 50.2274 6.97461C51.9235 6.18036 53.9425 6.91152 54.7369 8.60766C54.8361 8.81961 54.9151 9.05449 54.9678 9.2734L57.8919 22.3259C58.1269 23.3306 57.503 24.3356 56.4982 24.5706C55.6228 24.7755 54.7471 24.327 54.3807 23.5438Z" fill="#1BAF68"/>
<path d="M54.3791 23.5427L57.3032 36.5953C57.7298 38.419 59.5541 39.5515 61.3778 39.1249C63.2016 38.6983 64.3342 36.8741 63.9076 35.0503C63.8543 34.8225 63.7709 34.589 63.6766 34.3846L57.8903 22.3248C57.4527 21.3904 56.3404 20.9876 55.4059 21.4253C54.5917 21.8065 54.1817 22.701 54.3791 23.5427Z" fill="#1BAF68"/>
<g style="mix-blend-mode:multiply">
<path d="M60.8288 28.4495L57.8902 22.325C57.4526 21.3907 56.3405 20.9879 55.406 21.4255C54.5918 21.8069 54.1818 22.7012 54.379 23.5429L56.1398 31.4023C57.9619 30.3274 59.6368 29.3392 59.6395 29.3375C60.0718 29.0795 60.4683 28.7804 60.8288 28.4495Z" fill="#1BAF68"/>
</g>
<g style="mix-blend-mode:multiply">
<path d="M54.921 15.7366C54.9179 15.7369 52.9909 15.9981 50.8945 16.2823L54.3786 23.5438C54.745 24.3271 55.6207 24.7755 56.4962 24.5706C57.5009 24.3356 58.1248 23.3307 57.8898 22.3259L56.4043 15.6948C56.2282 15.6821 56.0508 15.6749 55.8722 15.6749C55.5557 15.6749 55.2356 15.6956 54.921 15.7366Z" fill="#1BAF68"/>
</g>
<path d="M57.6587 26.0215C59.0785 25.1737 59.708 23.4454 59.166 21.8831C58.6242 20.3207 57.0598 19.3536 55.4199 19.5671L46.166 20.8215L49.6156 30.7666L57.6587 26.0215Z" fill="#FFCC47"/>
<g style="mix-blend-mode:multiply">
<path d="M58.9946 21.4817C58.7052 22.0674 58.2522 22.5766 57.6587 22.9311L49.6156 27.6761L47.1899 20.6828L46.166 20.8216L49.6156 30.7666L57.6587 26.0216C59.0785 25.1738 59.7079 23.4456 59.166 21.8832C59.1177 21.7439 59.0585 21.6111 58.9946 21.4817Z" fill="#FFCC47"/>
</g>
<mask id="mask0_290_11992" style="mask-type:alpha" maskUnits="userSpaceOnUse" x="-1" y="11" width="55" height="35">
<path d="M52.679 23.6103C55.4131 30.6148 51.3205 38.167 44.4252 40.564C33.9413 44.2081 22.7693 45.26 11.7342 45.2418C11.6748 45.2431 11.6154 45.2443 11.5572 45.2443C6.63582 45.3036 2.22959 42.2061 0.617788 37.5563L0.173022 36.2741C0.0531376 35.93 -0.00390625 35.576 -0.00390625 35.2259C-0.00390625 34.2177 0.473566 33.2433 1.32434 32.6289C1.889 32.2229 2.54469 32.0254 3.1942 32.0254C4.1104 32.0254 5.0168 32.4168 5.647 33.1669C6.00446 33.5935 6.6456 33.6287 7.05277 33.2482C15.3677 22.004 35.1377 -2.77108 52.679 23.6103Z" fill="#17A05F"/>
</mask>
<g mask="url(#mask0_290_11992)">
<path d="M52.679 23.6103C55.4131 30.6148 51.3205 38.167 44.4252 40.564C33.9413 44.2081 22.7693 45.26 11.7342 45.2418C11.6748 45.2431 11.6154 45.2443 11.5572 45.2443C6.63582 45.3036 2.22959 42.2061 0.617788 37.5563L0.173022 36.2741C0.0531376 35.93 -0.00390625 35.576 -0.00390625 35.2259C-0.00390625 34.2177 0.473566 33.2433 1.32434 32.6289C1.889 32.2229 2.54469 32.0254 3.1942 32.0254C4.1104 32.0254 5.0168 32.4168 5.647 33.1669C6.00446 33.5935 6.6456 33.6287 7.05277 33.2482C15.3677 22.004 35.1377 -2.77108 52.679 23.6103Z" fill="#1BAF68"/>
<g style="mix-blend-mode:multiply">
<path fill-rule="evenodd" clip-rule="evenodd" d="M37.3145 28.6733C37.6191 28.36 38.1203 28.3485 38.434 28.6477C38.6441 28.8481 39.0638 29.1463 39.5733 29.3191C40.0735 29.4887 40.6014 29.5202 41.1062 29.2959C42.1698 28.8234 42.3329 27.8428 42.2916 27.4523C42.246 27.0217 42.5615 26.6332 42.9963 26.5844C43.4312 26.5357 43.8206 26.8451 43.8662 27.2757C43.9538 28.1029 43.636 29.8862 41.7438 30.7267C40.7708 31.159 39.8099 31.0619 39.0495 30.804C38.2986 30.5493 37.686 30.121 37.3311 29.7825C37.0174 29.4832 37.01 28.9867 37.3145 28.6733Z" fill="#1BAF68"/>
</g>
<ellipse cx="3.75545" cy="3.96502" rx="3.75545" ry="3.96502" transform="matrix(0.931984 -0.3625 0.362501 0.931983 28.5312 22.3633)" fill="white"/>
<path fill-rule="evenodd" clip-rule="evenodd" d="M34.0208 20.8244C33.3695 20.699 32.6845 20.7478 32.0313 21.0019C30.0983 21.7538 29.1748 24.0177 29.9686 26.0586C30.619 27.7309 32.2207 28.7345 33.8415 28.6288L34.0208 20.8244Z" fill="#1BAF68"/>
<g style="mix-blend-mode:multiply">
<path fill-rule="evenodd" clip-rule="evenodd" d="M34.021 20.8244C33.3697 20.699 32.6846 20.7478 32.0313 21.0019C30.0983 21.7538 29.1748 24.0177 29.9686 26.0586C30.6191 27.731 32.2208 28.7346 33.8417 28.6288L34.021 20.8244Z" fill="#1BAF68"/>
</g>
<ellipse cx="3.55985" cy="3.7585" rx="3.55985" ry="3.7585" transform="matrix(0.931984 -0.3625 0.362501 0.931983 35.8125 18.793)" fill="white"/>
<path fill-rule="evenodd" clip-rule="evenodd" d="M41.2449 17.3862C40.5608 17.2068 39.8265 17.2317 39.1302 17.5025C37.2979 18.2152 36.4225 20.3613 37.175 22.2958C37.8081 23.9235 39.3918 24.8829 40.9697 24.7219L41.2449 17.3862Z" fill="#1BAF68"/>
<g style="mix-blend-mode:multiply">
<path fill-rule="evenodd" clip-rule="evenodd" d="M41.2449 17.3862C40.5608 17.2068 39.8265 17.2317 39.1302 17.5025C37.2979 18.2152 36.4225 20.3613 37.175 22.2958C37.8081 23.9235 39.3918 24.8829 40.9697 24.7219L41.2449 17.3862Z" fill="#1BAF68"/>
</g>
<g style="mix-blend-mode:multiply">
<path d="M49.6016 41.8665L-3.13477 37.6318L-0.343901 51.7783L49.6016 41.8665Z" fill="#1BAF68"/>
</g>
</g>
<path d="M35.5797 11.9464C32.9362 9.09772 29.0827 7.41521 24.9016 7.67836C17.5095 8.14359 11.894 14.5133 12.3592 21.9054C12.4346 23.1036 12.666 24.2546 13.0309 25.341C13.0312 25.3408 13.0313 25.3407 13.0315 25.3406C13.063 25.3481 18.8793 26.7453 26.966 21.8357C34.9905 16.9654 35.5675 12.0502 35.5792 11.9476" fill="#FFCC47"/>
<g style="mix-blend-mode:multiply">
<path d="M16.2147 21.6629C15.7906 14.9243 20.4196 9.03648 26.8409 7.69524C26.2047 7.64381 25.5572 7.6372 24.9016 7.67847C17.5094 8.14371 11.894 14.5134 12.3592 21.9055C12.4347 23.1037 12.666 24.2546 13.0309 25.3411C13.031 25.341 13.0313 25.3408 13.0315 25.3407C13.0467 25.3444 14.4107 25.6718 16.7274 25.4571C16.4721 24.2473 16.2729 22.587 16.2147 21.6629Z" fill="#FFCC47"/>
</g>
<mask id="mask1_290_11992" style="mask-type:alpha" maskUnits="userSpaceOnUse" x="11" y="30" width="19" height="17">
<path d="M28.4652 30.7872L15.6924 32.9871C14.3162 33.224 13.1771 34.1894 12.7178 35.5081L11.7142 38.3892C10.729 41.2171 11.8377 44.3499 14.3823 45.9286C17.4259 47.8169 21.4267 46.838 23.2547 43.7579L29.8011 32.7279C30.366 31.776 29.556 30.5993 28.4652 30.7872Z" fill="#FFCC47"/>
</mask>
<g mask="url(#mask1_290_11992)">
<path d="M28.4652 30.7872L15.6924 32.9871C14.3162 33.224 13.1771 34.1894 12.7178 35.5081L11.7142 38.3892C10.729 41.2171 11.8377 44.3499 14.3823 45.9286C17.4259 47.8169 21.4267 46.838 23.2547 43.7579L29.8011 32.7279C30.366 31.776 29.556 30.5993 28.4652 30.7872Z" fill="#FFCC47"/>
<g style="mix-blend-mode:multiply">
<path d="M15.8351 48.188L17.9583 31.4954L12.273 31.3129L8.8612 45.6729L15.8351 48.188Z" fill="#FFCC47"/>
</g>
</g>
</g>
<defs>
<clipPath id="clip0_290_11992">
<rect width="64" height="64" fill="white"/>
</clipPath>
</defs>
</svg>
